ISO-10303-21;
HEADER;

/******************************************************************************************
* STEP Physical File produced by: The EXPRESS Data Manager Version 5.02.0100.07 : 28 Aug 2013
* Module:                         EDMstepFileFactory/EDMstandAlone
* Creation date:                  Tue Sep 10 22:04:57 2024
* Host:                           DESKTOP-DJKLJ22
* Database:                       C:\Users\123\AppData\Local\Temp\{2C35CA75-9D66-4802-803F-4BBD5ED5D73A}\ifc
* Database version:               5507
* Database creation date:         Tue Sep 10 22:04:56 2024
* Schema:                         IFC2X3
* Model:                          DataRepository.ifc
* Model creation date:            Tue Sep 10 22:04:56 2024
* Header model:                   DataRepository.ifc_HeaderModel
* Header model creation date:     Tue Sep 10 22:04:56 2024
* EDMuser:                        sdai-user
* EDMgroup:                       sdai-group
* License ID and type:            5605 : Permanent license. Expiry date: 
* EDMstepFileFactory options:     020000
******************************************************************************************/
FILE_DESCRIPTION(('ViewDefinition [CoordinationView_V2.0]'),'2;1');
FILE_NAME('\X2\987976EE7F1653F7\X0\','2024-09-10T22:04:57',(''),(''),'The EXPRESS Data Manager Version 5.02.0100.07 : 28 Aug 2013','20160225_1515(x64) - Exporter 17.0.416.0 - Alternate UI 17.12.14.0','');
FILE_SCHEMA(('IFC2X3'));
ENDSEC;

DATA;
#1= IFCORGANIZATION($,'Autodesk Revit 2017 (CHS)',$,$,$);
#5= IFCAPPLICATION(#1,'2017','Autodesk Revit 2017 (CHS)','Revit');
#6= IFCCARTESIANPOINT((0.,0.,0.));
#9= IFCCARTESIANPOINT((0.,0.));
#11= IFCDIRECTION((1.,0.,0.));
#13= IFCDIRECTION((-1.,0.,0.));
#15= IFCDIRECTION((0.,1.,0.));
#17= IFCDIRECTION((0.,-1.,0.));
#19= IFCDIRECTION((0.,0.,1.));
#21= IFCDIRECTION((0.,0.,-1.));
#23= IFCDIRECTION((1.,0.));
#25= IFCDIRECTION((-1.,0.));
#27= IFCDIRECTION((0.,1.));
#29= IFCDIRECTION((0.,-1.));
#31= IFCAXIS2PLACEMENT3D(#6,$,$);
#32= IFCLOCALPLACEMENT(#753,#31);
#35= IFCPERSON($,'','123',$,$,$,$,$);
#37= IFCORGANIZATION($,'','',$,$);
#38= IFCPERSONANDORGANIZATION(#35,#37,$);
#41= IFCOWNERHISTORY(#38,#5,$,.NOCHANGE.,$,$,$,1725799183);
#42= IFCSIUNIT(*,.LENGTHUNIT.,.MILLI.,.METRE.);
#43= IFCSIUNIT(*,.LENGTHUNIT.,$,.METRE.);
#44= IFCSIUNIT(*,.AREAUNIT.,$,.SQUARE_METRE.);
#45= IFCSIUNIT(*,.VOLUMEUNIT.,$,.CUBIC_METRE.);
#46= IFCSIUNIT(*,.PLANEANGLEUNIT.,$,.RADIAN.);
#47= IFCDIMENSIONALEXPONENTS(0,0,0,0,0,0,0);
#48= IFCMEASUREWITHUNIT(IFCRATIOMEASURE(0.0174532925199433),#46);
#49= IFCCONVERSIONBASEDUNIT(#47,.PLANEANGLEUNIT.,'DEGREE',#48);
#50= IFCSIUNIT(*,.MASSUNIT.,.KILO.,.GRAM.);
#51= IFCSIUNIT(*,.TIMEUNIT.,$,.SECOND.);
#52= IFCSIUNIT(*,.FREQUENCYUNIT.,$,.HERTZ.);
#53= IFCSIUNIT(*,.THERMODYNAMICTEMPERATUREUNIT.,$,.KELVIN.);
#54= IFCSIUNIT(*,.THERMODYNAMICTEMPERATUREUNIT.,$,.DEGREE_CELSIUS.);
#55= IFCDERIVEDUNITELEMENT(#50,1);
#56= IFCDERIVEDUNITELEMENT(#53,-1);
#57= IFCDERIVEDUNITELEMENT(#51,-3);
#58= IFCDERIVEDUNIT((#55,#56,#57),.THERMALTRANSMITTANCEUNIT.,$);
#60= IFCSIUNIT(*,.LENGTHUNIT.,.DECI.,.METRE.);
#61= IFCDERIVEDUNITELEMENT(#43,3);
#62= IFCDERIVEDUNITELEMENT(#51,-1);
#63= IFCDERIVEDUNIT((#61,#62),.VOLUMETRICFLOWRATEUNIT.,$);
#65= IFCSIUNIT(*,.ELECTRICCURRENTUNIT.,$,.AMPERE.);
#66= IFCSIUNIT(*,.ELECTRICVOLTAGEUNIT.,$,.VOLT.);
#67= IFCSIUNIT(*,.POWERUNIT.,$,.WATT.);
#68= IFCSIUNIT(*,.FORCEUNIT.,.KILO.,.NEWTON.);
#69= IFCSIUNIT(*,.ILLUMINANCEUNIT.,$,.LUX.);
#70= IFCSIUNIT(*,.LUMINOUSFLUXUNIT.,$,.LUMEN.);
#71= IFCSIUNIT(*,.LUMINOUSINTENSITYUNIT.,$,.CANDELA.);
#72= IFCDERIVEDUNITELEMENT(#50,-1);
#73= IFCDERIVEDUNITELEMENT(#43,-2);
#74= IFCDERIVEDUNITELEMENT(#51,3);
#75= IFCDERIVEDUNITELEMENT(#70,1);
#76= IFCDERIVEDUNIT((#72,#73,#74,#75),.USERDEFINED.,'Luminous Efficacy');
#78= IFCDERIVEDUNITELEMENT(#43,1);
#79= IFCDERIVEDUNITELEMENT(#51,-1);
#80= IFCDERIVEDUNIT((#78,#79),.LINEARVELOCITYUNIT.,$);
#82= IFCSIUNIT(*,.PRESSUREUNIT.,$,.PASCAL.);
#83= IFCDERIVEDUNITELEMENT(#43,-2);
#84= IFCDERIVEDUNITELEMENT(#50,1);
#85= IFCDERIVEDUNITELEMENT(#51,-2);
#86= IFCDERIVEDUNIT((#83,#84,#85),.USERDEFINED.,'Friction Loss');
#88= IFCUNITASSIGNMENT((#42,#44,#45,#49,#50,#51,#52,#54,#58,#63,#65,#66,#67,#68,#69,#70,#71,#76,#80,#82,#86));
#90= IFCAXIS2PLACEMENT3D(#6,$,$);
#91= IFCDIRECTION((6.12303176911189E-17,1.));
#93= IFCGEOMETRICREPRESENTATIONCONTEXT($,'Model',3,0.01,#90,#91);
#96= IFCGEOMETRICREPRESENTATIONSUBCONTEXT('Axis','Model',*,*,*,*,#93,$,.GRAPH_VIEW.,$);
#98= IFCGEOMETRICREPRESENTATIONSUBCONTEXT('Body','Model',*,*,*,*,#93,$,.MODEL_VIEW.,$);
#99= IFCGEOMETRICREPRESENTATIONSUBCONTEXT('Box','Model',*,*,*,*,#93,$,.MODEL_VIEW.,$);
#100= IFCGEOMETRICREPRESENTATIONSUBCONTEXT('FootPrint','Model',*,*,*,*,#93,$,.MODEL_VIEW.,$);
#101= IFCPROJECT('3C9Yd_R191jOzstQ9S_h34',#41,'\X2\987976EE7F1653F7\X0\',$,$,'\X2\987976EE540D79F0\X0\','\X2\987976EE72B66001\X0\',(#93),#88);
#107= IFCPOSTALADDRESS($,$,$,$,('\X2\8BF757286B6459048F93516557305740\X0\'),$,'','','','\X2\4E2D56FD53174EAC\X0\');
#111= IFCBUILDING('3C9Yd_R191jOzstQ9S_h35',#41,'',$,$,#32,$,'',.ELEMENT.,$,$,#107);
#117= IFCAXIS2PLACEMENT3D(#6,$,$);
#118= IFCLOCALPLACEMENT(#32,#117);
#120= IFCBUILDINGSTOREY('3C9Yd_R191jOzstQAZ1Ku3',#41,'\X2\68079AD8\X0\ 1',$,$,#118,$,'\X2\68079AD8\X0\ 1',.ELEMENT.,0.);
#122= IFCCARTESIANPOINT((0.,0.,4000.));
#124= IFCAXIS2PLACEMENT3D(#122,$,$);
#912= IFCAXIS2PLACEMENT3D(#6,$,$);
#766= IFCRELCONTAINEDINSPATIALSTRUCTURE('3Zu5Bv0LOHrPC10066FoQQ',#41,$,$,(#162,#230,#263,#296,#459,#591,#620,#664,#741),#120);
#128= IFCCARTESIANPOINT((-3207.27287378401,2232.96752044178,0.));
#130= IFCAXIS2PLACEMENT3D(#128,$,$);
#131= IFCLOCALPLACEMENT(#118,#130);
#133= IFCCARTESIANPOINT((1749.,0.));
#135= IFCPOLYLINE((#9,#133));
#137= IFCSHAPEREPRESENTATION(#96,'Axis','Curve2D',(#135));
#140= IFCCARTESIANPOINT((874.500000000001,7.81597009336110E-14));
#142= IFCAXIS2PLACEMENT2D(#140,#25);
#143= IFCRECTANGLEPROFILEDEF(.AREA.,$,#142,1749.,200.);
#144= IFCAXIS2PLACEMENT3D(#6,$,$);
#145= IFCEXTRUDEDAREASOLID(#143,#144,#19,2522.);
#146= IFCCOLOURRGB($,0.501960784313725,0.501960784313725,0.501960784313725);
#147= IFCSURFACESTYLERENDERING(#146,0.,$,$,$,$,IFCNORMALISEDRATIOMEASURE(0.5),IFCSPECULAREXPONENT(64.),.NOTDEFINED.);
#148= IFCSURFACESTYLE('\X2\9ED88BA45899\X0\',.BOTH.,(#147));
#150= IFCPRESENTATIONSTYLEASSIGNMENT((#148));
#152= IFCSTYLEDITEM(#145,(#150),$);
#155= IFCSHAPEREPRESENTATION(#98,'Body','SweptSolid',(#145));
#158= IFCPRODUCTDEFINITIONSHAPE($,$,(#137,#155));
#162= IFCWALLSTANDARDCASE('0hO3I46Cj8Xumml5mitUSY',#41,'\X2\57FA672C5899\X0\:\X2\5E3889C4\X0\ - 200mm:329065',$,'\X2\57FA672C5899\X0\:\X2\5E3889C4\X0\ - 200mm:398',#131,#158,'329065');
#171= IFCMATERIAL('\X2\9ED88BA45899\X0\');
#174= IFCPRESENTATIONSTYLEASSIGNMENT((#148));
#176= IFCSTYLEDITEM($,(#174),$);
#178= IFCSTYLEDREPRESENTATION(#93,'Style','Material',(#176));
#181= IFCMATERIALDEFINITIONREPRESENTATION($,$,(#178),#171);
#184= IFCMATERIALLAYER(#171,200.,$);
#186= IFCMATERIALLAYERSET((#184),'\X2\57FA672C5899\X0\:\X2\5E3889C4\X0\ - 200mm');
#189= IFCMATERIALLAYERSETUSAGE(#186,.AXIS2.,.NEGATIVE.,100.);
#190= IFCWALLTYPE('3Zu5Bv0LOHrPC10026FoOZ',#41,'\X2\57FA672C5899\X0\:\X2\5E3889C4\X0\ - 200mm',$,$,$,$,'398',$,.STANDARD.);
#192= IFCPROPERTYSINGLEVALUE('Reference',$,IFCIDENTIFIER('\X2\5E3889C4\X0\ - 200mm'),$);
#193= IFCPROPERTYSINGLEVALUE('LoadBearing',$,IFCBOOLEAN(.F.),$);
#194= IFCPROPERTYSINGLEVALUE('ExtendToStructure',$,IFCBOOLEAN(.F.),$);
#195= IFCPROPERTYSINGLEVALUE('IsExternal',$,IFCBOOLEAN(.T.),$);
#196= IFCPROPERTYSET('0hO3I46Cj8Xummjw4itUSY',#41,'Pset_WallCommon',$,(#192,#193,#194,#195));
#201= IFCRELDEFINESBYPROPERTIES('0rv1oQv597_AYxZOUBFJRk',#41,$,$,(#162),#196);
#205= IFCCLASSIFICATION('http://www.csiorg.net/uniformat','1998',$,'Uniformat');
#207= IFCCARTESIANPOINT((-1558.27287378401,2132.96752044177,0.));
#209= IFCAXIS2PLACEMENT3D(#207,#19,#17);
#210= IFCLOCALPLACEMENT(#118,#209);
#211= IFCCARTESIANPOINT((1666.,0.));
#213= IFCPOLYLINE((#9,#211));
#215= IFCSHAPEREPRESENTATION(#96,'Axis','Curve2D',(#213));
#217= IFCCARTESIANPOINT((833.,0.));
#219= IFCAXIS2PLACEMENT2D(#217,#25);
#220= IFCRECTANGLEPROFILEDEF(.AREA.,$,#219,1666.,200.);
#221= IFCAXIS2PLACEMENT3D(#6,$,$);
#222= IFCEXTRUDEDAREASOLID(#220,#221,#19,2522.);
#223= IFCSTYLEDITEM(#222,(#150),$);
#226= IFCSHAPEREPRESENTATION(#98,'Body','SweptSolid',(#222));
#228= IFCPRODUCTDEFINITIONSHAPE($,$,(#215,#226));
#230= IFCWALLSTANDARDCASE('0hO3I46Cj8Xumml5mitUUc',#41,'\X2\57FA672C5899\X0\:\X2\5E3889C4\X0\ - 200mm:329197',$,'\X2\57FA672C5899\X0\:\X2\5E3889C4\X0\ - 200mm:398',#210,#228,'329197');
#233= IFCMATERIALLAYERSETUSAGE(#186,.AXIS2.,.NEGATIVE.,100.);
#234= IFCPROPERTYSET('0hO3I46Cj8Xummjw4itUUc',#41,'Pset_WallCommon',$,(#192,#193,#194,#195));
#236= IFCRELDEFINESBYPROPERTIES('0osPfdVfXCzRT5c6cGVfRL',#41,$,$,(#230),#234);
#240= IFCCARTESIANPOINT((-1658.27287378401,566.967520441773,0.));
#242= IFCAXIS2PLACEMENT3D(#240,#19,#13);
#243= IFCLOCALPLACEMENT(#118,#242);
#244= IFCCARTESIANPOINT((1549.,0.));
#246= IFCPOLYLINE((#9,#244));
#248= IFCSHAPEREPRESENTATION(#96,'Axis','Curve2D',(#246));
#250= IFCCARTESIANPOINT((774.500000000001,2.84217094304040E-14));
#252= IFCAXIS2PLACEMENT2D(#250,#25);
#253= IFCRECTANGLEPROFILEDEF(.AREA.,$,#252,1549.,200.);
#254= IFCAXIS2PLACEMENT3D(#6,$,$);
#255= IFCEXTRUDEDAREASOLID(#253,#254,#19,2522.);
#256= IFCSTYLEDITEM(#255,(#150),$);
#259= IFCSHAPEREPRESENTATION(#98,'Body','SweptSolid',(#255));
#261= IFCPRODUCTDEFINITIONSHAPE($,$,(#248,#259));
#263= IFCWALLSTANDARDCASE('0hO3I46Cj8Xumml5mitUHZ',#41,'\X2\57FA672C5899\X0\:\X2\5E3889C4\X0\ - 200mm:329256',$,'\X2\57FA672C5899\X0\:\X2\5E3889C4\X0\ - 200mm:398',#243,#261,'329256');
#266= IFCMATERIALLAYERSETUSAGE(#186,.AXIS2.,.NEGATIVE.,100.);
#267= IFCPROPERTYSET('0hO3I46Cj8Xummjw4itUHZ',#41,'Pset_WallCommon',$,(#192,#193,#194,#195));
#269= IFCRELDEFINESBYPROPERTIES('2ezG9xuT92k8bNvJh4DNe2',#41,$,$,(#263),#267);
#273= IFCCARTESIANPOINT((-3107.27287378401,666.967520441777,0.));
#275= IFCAXIS2PLACEMENT3D(#273,#19,#15);
#276= IFCLOCALPLACEMENT(#118,#275);
#277= IFCCARTESIANPOINT((1466.,-0.));
#279= IFCPOLYLINE((#9,#277));
#281= IFCSHAPEREPRESENTATION(#96,'Axis','Curve2D',(#279));
#283= IFCCARTESIANPOINT((733.000000000001,-1.56319401867222E-13));
#285= IFCAXIS2PLACEMENT2D(#283,#25);
#286= IFCRECTANGLEPROFILEDEF(.AREA.,$,#285,1466.,200.);
#287= IFCAXIS2PLACEMENT3D(#6,$,$);
#288= IFCEXTRUDEDAREASOLID(#286,#287,#19,2522.);
#289= IFCSTYLEDITEM(#288,(#150),$);
#292= IFCSHAPEREPRESENTATION(#98,'Body','SweptSolid',(#288));
#294= IFCPRODUCTDEFINITIONSHAPE($,$,(#281,#292));
#296= IFCWALLSTANDARDCASE('0hO3I46Cj8Xumml5mitUG2',#41,'\X2\57FA672C5899\X0\:\X2\5E3889C4\X0\ - 200mm:329289',$,'\X2\57FA672C5899\X0\:\X2\5E3889C4\X0\ - 200mm:398',#276,#294,'329289');
#299= IFCMATERIALLAYERSETUSAGE(#186,.AXIS2.,.NEGATIVE.,100.);
#300= IFCPROPERTYSET('0hO3I46Cj8Xummjw4itUG2',#41,'Pset_WallCommon',$,(#192,#193,#194,#195));
#302= IFCRELDEFINESBYPROPERTIES('1$tg4miTrCdAYe15O$mA1z',#41,$,$,(#296),#300);
#306= IFCCARTESIANPOINT((8.43769498715119E-15,0.));
#308= IFCAXIS2PLACEMENT2D(#306,#23);
#309= IFCRECTANGLEPROFILEDEF(.AREA.,'bath',#308,12.,417.999999999997);
#310= IFCCARTESIANPOINT((272.,159.,63.));
#312= IFCAXIS2PLACEMENT3D(#310,#19,#17);
#313= IFCEXTRUDEDAREASOLID(#309,#312,#19,1029.00000000001);
#314= IFCCARTESIANPOINT((-253.,-558.500000000003));
#316= IFCCARTESIANPOINT((253.,-558.500000000003));
#318= IFCCARTESIANPOINT((253.,558.500000000002));
#320= IFCCARTESIANPOINT((-253.,558.500000000002));
#322= IFCPOLYLINE((#314,#316,#318,#320,#314));
#324= IFCCARTESIANPOINT((-209.,-514.500000000003));
#326= IFCCARTESIANPOINT((-209.,514.500000000004));
#328= IFCCARTESIANPOINT((209.,514.500000000004));
#330= IFCCARTESIANPOINT((209.,-514.500000000003));
#332= IFCPOLYLINE((#324,#326,#328,#330,#324));
#334= IFCARBITRARYPROFILEDEFWITHVOIDS(.AREA.,'bath',#322,(#332));
#336= IFCCARTESIANPOINT((272.,137.,577.499999999989));
#338= IFCAXIS2PLACEMENT3D(#336,#15,#11);
#339= IFCEXTRUDEDAREASOLID(#334,#338,#19,44.0000000000274);
#340= IFCCARTESIANPOINT((-272.,-577.499999999997));
#342= IFCCARTESIANPOINT((272.,-577.499999999997));
#344= IFCCARTESIANPOINT((272.,577.499999999997));
#346= IFCCARTESIANPOINT((-272.,577.499999999997));
#348= IFCPOLYLINE((#340,#342,#344,#346,#340));
#350= IFCCARTESIANPOINT((-253.,-558.499999999982));
#352= IFCCARTESIANPOINT((-253.,558.500000000023));
#354= IFCCARTESIANPOINT((253.,558.500000000023));
#356= IFCCARTESIANPOINT((253.,-558.499999999982));
#358= IFCPOLYLINE((#350,#352,#354,#356,#350));
#360= IFCARBITRARYPROFILEDEFWITHVOIDS(.AREA.,'bath',#348,(#358));
#362= IFCCARTESIANPOINT((272.,137.,577.500000000009));
#364= IFCAXIS2PLACEMENT3D(#362,#15,#11);
#365= IFCEXTRUDEDAREASOLID(#360,#364,#19,63.0000000000274);
#366= IFCCARTESIANPOINT((-272.,-577.499999999996));
#368= IFCCARTESIANPOINT((272.,-577.499999999996));
#370= IFCCARTESIANPOINT((272.,577.499999999996));
#372= IFCCARTESIANPOINT((-272.,577.499999999996));
#374= IFCPOLYLINE((#366,#368,#370,#372,#366));
#376= IFCCARTESIANPOINT((-240.,-545.499999999983));
#378= IFCCARTESIANPOINT((-240.,545.500000000021));
#380= IFCCARTESIANPOINT((240.,545.500000000021));
#382= IFCCARTESIANPOINT((240.,-545.499999999983));
#384= IFCPOLYLINE((#376,#378,#380,#382,#376));
#386= IFCARBITRARYPROFILEDEFWITHVOIDS(.AREA.,'bath',#374,(#384));
#388= IFCCARTESIANPOINT((272.,0.,577.500000000009));
#390= IFCAXIS2PLACEMENT3D(#388,#15,#11);
#391= IFCEXTRUDEDAREASOLID(#386,#390,#19,136.999999999973);
#392= IFCCOLOURRGB($,0.,0.501960784313725,0.752941176470588);
#393= IFCSURFACESTYLERENDERING(#392,0.9,$,$,$,$,IFCNORMALISEDRATIOMEASURE(0.5),IFCSPECULAREXPONENT(12.),.NOTDEFINED.);
#394= IFCSURFACESTYLE('\X2\73BB7483\X0\',.BOTH.,(#393));
#396= IFCPRESENTATIONSTYLEASSIGNMENT((#394));
#398= IFCSTYLEDITEM(#313,(#396),$);
#401= IFCCOLOURRGB($,0.87843137254902,0.698039215686274,0.494117647058824);
#402= IFCSURFACESTYLERENDERING(#401,0.,$,$,$,$,IFCNORMALISEDRATIOMEASURE(0.5),IFCSPECULAREXPONENT(128.),.NOTDEFINED.);
#403= IFCSURFACESTYLE('\X2\7A976247\X0\',.BOTH.,(#402));
#405= IFCPRESENTATIONSTYLEASSIGNMENT((#403));
#407= IFCSTYLEDITEM(#339,(#405),$);
#410= IFCSTYLEDITEM(#365,(#405),$);
#413= IFCSTYLEDITEM(#391,(#405),$);
#416= IFCSHAPEREPRESENTATION(#98,'Body','SweptSolid',(#313,#339,#365,#391));
#418= IFCAXIS2PLACEMENT3D(#6,$,$);
#419= IFCREPRESENTATIONMAP(#418,#416);
#421= IFCWINDOWLININGPROPERTIES('2cudpjeTv6gvk$Y2Igo4Jb',#41,'\X2\56FA5B9A\X0\:bath:329354',$,$,$,$,$,$,$,$,$,$);
#422= IFCWINDOWSTYLE('0hO3I46Cj8Xumml4aitUIE',#41,'bath',$,$,(#421),(#419),'329351',.NOTDEFINED.,.NOTDEFINED.,.F.,.F.);
#426= IFCMATERIAL('\X2\73BB7483\X0\');
#427= IFCPRESENTATIONSTYLEASSIGNMENT((#394));
#429= IFCSTYLEDITEM($,(#427),$);
#431= IFCSTYLEDREPRESENTATION(#93,'Style','Material',(#429));
#433= IFCMATERIALDEFINITIONREPRESENTATION($,$,(#431),#426);
#436= IFCMATERIAL('\X2\7A976247\X0\');
#437= IFCPRESENTATIONSTYLEASSIGNMENT((#403));
#439= IFCSTYLEDITEM($,(#437),$);
#441= IFCSTYLEDREPRESENTATION(#93,'Style','Material',(#439));
#443= IFCMATERIALDEFINITIONREPRESENTATION($,$,(#441),#436);
#446= IFCMATERIALLIST((#426,#436));
#448= IFCCARTESIANTRANSFORMATIONOPERATOR3D($,$,#6,1.,$);
#449= IFCMAPPEDITEM(#419,#448);
#451= IFCSHAPEREPRESENTATION(#98,'Body','MappedRepresentation',(#449));
#453= IFCPRODUCTDEFINITIONSHAPE($,$,(#451));
#455= IFCCARTESIANPOINT((-1658.27287378401,1340.96752044177,1005.));
#457= IFCAXIS2PLACEMENT3D(#455,#19,#17);
#885= IFCLOCALPLACEMENT(#873,#884);
#459= IFCWINDOW('0hO3I46Cj8Xumml5mitUJ1',#41,'\X2\56FA5B9A\X0\:bath:329354',$,'bath',#885,#453,'329354',1155.,543.999999999999);
#462= IFCMATERIALLIST((#426,#436));
#464= IFCPROPERTYSINGLEVALUE('Reference',$,IFCIDENTIFIER('bath'),$);
#465= IFCPROPERTYSINGLEVALUE('ThermalTransmittance',$,IFCTHERMALTRANSMITTANCEMEASURE(3.6886),$);
#466= IFCPROPERTYSET('0hO3I46Cj8Xummjw8itUJ1',#41,'Pset_WindowCommon',$,(#195,#464,#465));
#468= IFCRELDEFINESBYPROPERTIES('252HwGVhn4YAueiy0t4bsr',#41,$,$,(#459),#466);
#473= IFCCARTESIANPOINT((-452.,-1154.));
#475= IFCCARTESIANPOINT((452.,-1154.));
#477= IFCCARTESIANPOINT((452.,1116.));
#479= IFCCARTESIANPOINT((376.,1116.));
#481= IFCCARTESIANPOINT((376.,-1078.));
#483= IFCCARTESIANPOINT((-376.,-1078.));
#485= IFCCARTESIANPOINT((-376.,1116.));
#487= IFCCARTESIANPOINT((-452.,1116.));
#489= IFCPOLYLINE((#473,#475,#477,#479,#481,#483,#485,#487,#473));
#491= IFCARBITRARYCLOSEDPROFILEDEF(.AREA.,'bath',#489);
#492= IFCCARTESIANPOINT((376.,200.,1116.));
#494= IFCAXIS2PLACEMENT3D(#492,#15,#11);
#495= IFCEXTRUDEDAREASOLID(#491,#494,#19,24.9999999999945);
#496= IFCCARTESIANPOINT((-1154.,-452.));
#498= IFCCARTESIANPOINT((1116.,-452.));
#500= IFCCARTESIANPOINT((1116.,-376.));
#502= IFCCARTESIANPOINT((-1078.,-376.));
#504= IFCCARTESIANPOINT((-1078.,376.));
#506= IFCCARTESIANPOINT((1116.,376.));
#508= IFCCARTESIANPOINT((1116.,452.));
#510= IFCCARTESIANPOINT((-1154.,452.));
#512= IFCPOLYLINE((#496,#498,#500,#502,#504,#506,#508,#510,#496));
#514= IFCARBITRARYCLOSEDPROFILEDEF(.AREA.,'bath',#512);
#515= IFCCARTESIANPOINT((376.,-25.,1116.));
#517= IFCAXIS2PLACEMENT3D(#515,#15,#21);
#518= IFCEXTRUDEDAREASOLID(#514,#517,#19,25.0000000000056);
#519= IFCCARTESIANPOINT((-5.32907051820075E-15,0.));
#521= IFCAXIS2PLACEMENT2D(#519,#23);
#522= IFCRECTANGLEPROFILEDEF(.AREA.,'bath',#521,51.,752.);
#523= IFCCARTESIANPOINT((376.,174.499999999999,0.));
#525= IFCAXIS2PLACEMENT3D(#523,#19,#15);
#526= IFCEXTRUDEDAREASOLID(#522,#525,#19,2194.);
#527= IFCCOLOURRGB($,0.462745098039216,0.274509803921569,0.2);
#528= IFCSURFACESTYLERENDERING(#527,0.,$,$,$,$,IFCNORMALISEDRATIOMEASURE(0.5),IFCSPECULAREXPONENT(128.),.NOTDEFINED.);
#529= IFCSURFACESTYLE('\X2\95E8\X0\ - \X2\684667B6\X0\',.BOTH.,(#528));
#531= IFCPRESENTATIONSTYLEASSIGNMENT((#529));
#533= IFCSTYLEDITEM(#495,(#531),$);
#536= IFCSTYLEDITEM(#518,(#531),$);
#539= IFCCOLOURRGB($,0.823529411764706,0.623529411764706,0.372549019607843);
#540= IFCSURFACESTYLERENDERING(#539,0.,$,$,$,$,IFCNORMALISEDRATIOMEASURE(0.5),IFCSPECULAREXPONENT(128.),.NOTDEFINED.);
#541= IFCSURFACESTYLE('\X2\95E8\X0\ - \X2\5D4C677F\X0\',.BOTH.,(#540));
#543= IFCPRESENTATIONSTYLEASSIGNMENT((#541));
#545= IFCSTYLEDITEM(#526,(#543),$);
#548= IFCSHAPEREPRESENTATION(#98,'Body','SweptSolid',(#495,#518,#526));
#550= IFCAXIS2PLACEMENT3D(#6,$,$);
#551= IFCREPRESENTATIONMAP(#550,#548);
#552= IFCDOORLININGPROPERTIES('0hO3I46Cj8Xumml5qitULk',#41,'\X2\53556247\X0\ - \X2\4E0E58999F50\X0\:bath:329509',$,$,$,$,$,$,$,$,$,$,$,$);
#553= IFCDOORPANELPROPERTIES('39JXiMGdf0$B54WKFxzHxL',#41,'\X2\53556247\X0\ - \X2\4E0E58999F50\X0\:bath:329509',$,$,.SWINGING.,$,.NOTDEFINED.,$);
#554= IFCDOORSTYLE('0hO3I46Cj8Xumml4aitUNE',#41,'bath',$,$,(#552,#553),(#551),'329595',.SINGLE_SWING_RIGHT.,.NOTDEFINED.,.F.,.F.);
#559= IFCMATERIAL('\X2\95E8\X0\ - \X2\684667B6\X0\');
#560= IFCPRESENTATIONSTYLEASSIGNMENT((#529));
#562= IFCSTYLEDITEM($,(#560),$);
#564= IFCSTYLEDREPRESENTATION(#93,'Style','Material',(#562));
#566= IFCMATERIALDEFINITIONREPRESENTATION($,$,(#564),#559);
#569= IFCMATERIAL('\X2\95E8\X0\ - \X2\5D4C677F\X0\');
#570= IFCPRESENTATIONSTYLEASSIGNMENT((#541));
#572= IFCSTYLEDITEM($,(#570),$);
#574= IFCSTYLEDREPRESENTATION(#93,'Style','Material',(#572));
#576= IFCMATERIALDEFINITIONREPRESENTATION($,$,(#574),#569);
#579= IFCMATERIALLIST((#559,#569));
#581= IFCMAPPEDITEM(#551,#448);
#583= IFCSHAPEREPRESENTATION(#98,'Body','MappedRepresentation',(#581));
#585= IFCPRODUCTDEFINITIONSHAPE($,$,(#583));
#587= IFCCARTESIANPOINT((-3007.27287378401,1181.96752044178,0.));
#589= IFCAXIS2PLACEMENT3D(#587,#19,#15);
#913= IFCLOCALPLACEMENT(#901,#912);
#591= IFCDOOR('0hO3I46Cj8Xumml5mitULk',#41,'\X2\53556247\X0\ - \X2\4E0E58999F50\X0\:bath:329509',$,'bath',#913,#585,'329509',2194.,752.);
#594= IFCMATERIALLIST((#559,#569));
#596= IFCPROPERTYSINGLEVALUE('IsExternal',$,IFCBOOLEAN(.F.),$);
#597= IFCPROPERTYSINGLEVALUE('ThermalTransmittance',$,IFCTHERMALTRANSMITTANCEMEASURE(3.7021),$);
#598= IFCPROPERTYSET('0hO3I46Cj8XummjwmitULk',#41,'Pset_DoorCommon',$,(#464,#596,#597));
#600= IFCRELDEFINESBYPROPERTIES('0B25DnmG1BSPPp84WQs7vH',#41,$,$,(#591),#598);
#605= IFCAXIS2PLACEMENT3D(#6,$,$);
#606= IFCLOCALPLACEMENT(#118,#605);
#607= IFCCARTESIANPOINT((0.,0.));
#609= IFCAXIS2PLACEMENT2D(#607,#23);
#610= IFCCIRCLEPROFILEDEF(.AREA.,'\X2\9ED88BA4\X0\',#609,57.15);
#611= IFCCARTESIANPOINT((-1875.10180159815,1899.64640241561,0.));
#613= IFCAXIS2PLACEMENT3D(#611,#19,#13);
#614= IFCEXTRUDEDAREASOLID(#610,#613,#19,2500.);
#615= IFCSHAPEREPRESENTATION(#98,'Body','SweptSolid',(#614));
#617= IFCPRODUCTDEFINITIONSHAPE($,$,(#615));
#619= IFCPIPESEGMENTTYPE('3$m2m5B658bhKu0iVa0OWl',#41,'\X2\7BA190537C7B578B\X0\:\X2\9ED88BA4\X0\',$,'',$,$,'259555',$,.NOTDEFINED.);
#620= IFCFLOWSEGMENT('0hO3I46Cj8Xumml5mitUMM',#41,'\X2\7BA190537C7B578B\X0\:\X2\9ED88BA4\X0\:329693',$,'\X2\7BA190537C7B578B\X0\:\X2\9ED88BA4\X0\:259555',#606,#617,'329693');
#624= IFCPROPERTYSINGLEVALUE('Reference',$,IFCIDENTIFIER('\X2\9ED88BA4\X0\'),$);
#625= IFCPROPERTYSET('0hO3I46Cj8XummjwuitUMM',#41,'Pset_DistributionFlowElementCommon',$,(#624));
#627= IFCRELDEFINESBYPROPERTIES('03WwSR_avBc8LGgEYvizUn',#41,$,$,(#620),#625);
#633= IFCAXIS2PLACEMENT3D(#643,$,$);
#634= IFCLOCALPLACEMENT(#118,#633);
#643= IFCCARTESIANPOINT((-3207.27287378401,466.967520441777,2479.));
#645= IFCAXIS2PLACEMENT2D(#9,#29);
#646= IFCRECTANGLEPROFILEDEF(.AREA.,$,#645,1866.,1749.);
#647= IFCCARTESIANPOINT((874.5,933.,43.));
#649= IFCAXIS2PLACEMENT3D(#647,#21,#13);
#650= IFCEXTRUDEDAREASOLID(#646,#649,#19,43.);
#651= IFCCOLOURRGB($,0.498039215686275,0.498039215686275,0.498039215686275);
#652= IFCSURFACESTYLERENDERING(#651,0.,$,$,$,$,IFCNORMALISEDRATIOMEASURE(0.00390625),IFCSPECULAREXPONENT(64.),.NOTDEFINED.);
#653= IFCSURFACESTYLE('\X2\9ED88BA4697C677F\X0\',.BOTH.,(#652));
#655= IFCPRESENTATIONSTYLEASSIGNMENT((#653));
#657= IFCSTYLEDITEM(#650,(#655),$);
#660= IFCSHAPEREPRESENTATION(#98,'Body','SweptSolid',(#650));
#662= IFCPRODUCTDEFINITIONSHAPE($,$,(#660));
#664= IFCSLAB('0hO3I46Cj8Xumml5mitUhY',#41,'\X2\697C677F\X0\:\X2\5E3889C4\X0\ - 150mm:329897',$,'\X2\697C677F\X0\:\X2\5E3889C4\X0\ - 150mm',#634,#662,'329897',.FLOOR.);
#667= IFCAXIS2PLACEMENT2D(#9,#23);
#668= IFCCIRCLEPROFILEDEF(.AREA.,$,#667,160.);
#669= IFCAXIS2PLACEMENT3D(#6,#21,#11);
#670= IFCEXTRUDEDAREASOLID(#668,#669,#19,43.);
#671= IFCPRESENTATIONSTYLEASSIGNMENT((#653));
#673= IFCSTYLEDITEM(#670,(#671),$);
#676= IFCSHAPEREPRESENTATION(#98,'Body','SweptSolid',(#670));
#678= IFCPRODUCTDEFINITIONSHAPE($,$,(#676));
#680= IFCCARTESIANPOINT((1332.17107218586,1432.67888197383,43.));
#682= IFCAXIS2PLACEMENT3D(#680,$,$);
#683= IFCLOCALPLACEMENT(#634,#682);
#685= IFCOPENINGELEMENT('0dh1Fk4c12O8ymG0Yoek$m',#41,'\X2\697C677F\X0\:\X2\5E3889C4\X0\ - 150mm:329897:2',$,'Opening',#683,#678,'329897');
#690= IFCRELVOIDSELEMENT('1NABQHnnzDFPtjuG0ASdzM',#41,$,$,#664,#685);
#693= IFCMATERIAL('\X2\9ED88BA4697C677F\X0\');
#694= IFCCOLOURRGB($,0.498039215686275,0.498039215686275,0.498039215686275);
#695= IFCSURFACESTYLERENDERING(#694,0.,$,$,$,$,IFCNORMALISEDRATIOMEASURE(0.5),IFCSPECULAREXPONENT(64.),.NOTDEFINED.);
#696= IFCSURFACESTYLE('\X2\9ED88BA4697C677F\X0\',.BOTH.,(#695));
#698= IFCPRESENTATIONSTYLEASSIGNMENT((#696));
#700= IFCSTYLEDITEM($,(#698),$);
#702= IFCSTYLEDREPRESENTATION(#93,'Style','Material',(#700));
#704= IFCMATERIALDEFINITIONREPRESENTATION($,$,(#702),#693);
#707= IFCMATERIALLAYER(#693,43.,$);
#708= IFCMATERIALLAYERSET((#707),'\X2\697C677F\X0\:\X2\5E3889C4\X0\ - 150mm');
#711= IFCMATERIALLAYERSETUSAGE(#708,.AXIS3.,.POSITIVE.,0.);
#712= IFCPROPERTYSINGLEVALUE('Reference',$,IFCIDENTIFIER('\X2\5E3889C4\X0\ - 150mm'),$);
#713= IFCPROPERTYSINGLEVALUE('LoadBearing',$,IFCBOOLEAN(.T.),$);
#714= IFCPROPERTYSET('0hO3I46Cj8XummjwSitUhY',#41,'Pset_SlabCommon',$,(#596,#712,#713));
#716= IFCRELDEFINESBYPROPERTIES('1wXy1JiDL6lQyk4JBcQfez',#41,$,$,(#664),#714);
#722= IFCAXIS2PLACEMENT3D(#6,$,$);
#723= IFCLOCALPLACEMENT(#118,#722);
#724= IFCCARTESIANPOINT((-2.84217094304040E-13,0.));
#726= IFCAXIS2PLACEMENT2D(#724,#23);
#727= IFCRECTANGLEPROFILEDEF(.AREA.,'\X2\5E3889C4\X0\ - 150mm',#726,1866.,1749.);
#728= IFCCARTESIANPOINT((-2332.77287378401,1399.96752044178,0.));
#730= IFCAXIS2PLACEMENT3D(#728,#21,#15);
#731= IFCEXTRUDEDAREASOLID(#727,#730,#19,43.);
#732= IFCPRESENTATIONSTYLEASSIGNMENT((#696));
#734= IFCSTYLEDITEM(#731,(#732),$);
#737= IFCSHAPEREPRESENTATION(#98,'Body','SweptSolid',(#731));
#739= IFCPRODUCTDEFINITIONSHAPE($,$,(#737));
#741= IFCSLAB('0hO3I46Cj8Xumml5mitUgl',#41,'\X2\697C677F\X0\:\X2\5E3889C4\X0\ - 150mm:329956',$,'\X2\697C677F\X0\:\X2\5E3889C4\X0\ - 150mm',#723,#739,'329956',.FLOOR.);
#744= IFCMATERIALLAYERSETUSAGE(#708,.AXIS3.,.POSITIVE.,0.);
#745= IFCPROPERTYSINGLEVALUE('PitchAngle',$,IFCPLANEANGLEMEASURE(0.),$);
#746= IFCPROPERTYSET('0hO3I46Cj8XummjwSitUgl',#41,'Pset_SlabCommon',$,(#596,#712,#713,#745));
#748= IFCRELDEFINESBYPROPERTIES('1peACI6Z5CfOMKm2OnJ7qe',#41,$,$,(#741),#746);
#752= IFCAXIS2PLACEMENT3D(#6,$,$);
#753= IFCLOCALPLACEMENT($,#752);
#754= IFCSITE('3C9Yd_R191jOzstQ9S_h36',#41,'Default',$,'',#753,$,$,.ELEMENT.,(39,54,57,601318),(116,25,58,795166),0.,$,$);
#759= IFCPROPERTYSINGLEVALUE('AboveGround',$,IFCLOGICAL(.U.),$);
#760= IFCPROPERTYSET('3Zu5Bv0LOHrPC12_o6FoQQ',#41,'Pset_BuildingStoreyCommon',$,(#759));
#762= IFCRELDEFINESBYPROPERTIES('3F1XYP9mX5oe5vcbZs9yjd',#41,$,$,(#120),#760);
#778= IFCRELAGGREGATES('3qyaunJ9j39AAsRwz6YMOG',#41,$,$,#101,(#754));
#782= IFCRELAGGREGATES('24xJRBO4T1wxt_4ex9xn68',#41,$,$,#754,(#111));
#786= IFCRELAGGREGATES('27PCKGLxT4mxtV9cw6mgBW',#41,$,$,#111,(#120));
#790= IFCPROPERTYSINGLEVALUE('NumberOfStoreys',$,IFCINTEGER(1),$);
#791= IFCPROPERTYSET('27PCKGLxT4mxtVBOQ6mgBW',#41,'Pset_BuildingCommon',$,(#790));
#793= IFCRELDEFINESBYPROPERTIES('3tIXbDOvTBhv1PUncK9KPL',#41,$,$,(#111),#791);
#797= IFCRELASSOCIATESMATERIAL('3PPmNruPH6QP4gqrbEHH_V',#41,$,$,(#162),#189);
#800= IFCRELASSOCIATESMATERIAL('3ZjrDdY954V9fozgk5a9Ie',#41,$,$,(#190),#186);
#803= IFCRELASSOCIATESMATERIAL('1fxj16eb132wSk3VifrHHh',#41,$,$,(#230),#233);
#806= IFCRELASSOCIATESMATERIAL('3Myi8Q9Bf97fOvxQHq7Bwr',#41,$,$,(#263),#266);
#809= IFCRELASSOCIATESMATERIAL('1goYCGP4LCRP5yTHPdtJMW',#41,$,$,(#296),#299);
#812= IFCRELASSOCIATESMATERIAL('2AwvG_hIXFGu3rqq$4Ys$P',#41,$,$,(#664),#711);
#815= IFCRELASSOCIATESMATERIAL('32wWG_Htr7NB1EWwaF8lTr',#41,$,$,(#741),#744);
#818= IFCRELASSOCIATESMATERIAL('0I88NpxtjA3eUSd5uzuFU8',#41,$,$,(#422),#446);
#821= IFCRELASSOCIATESMATERIAL('0mxcCsEfvEBxBnWlb4DchH',#41,$,$,(#459),#462);
#824= IFCRELASSOCIATESMATERIAL('0DdLe5lN1BVfGBq0$DMPVc',#41,$,$,(#554),#579);
#827= IFCRELASSOCIATESMATERIAL('1p3gvFFbj0vvicqUbzhKEv',#41,$,$,(#591),#594);
#830= IFCRELDEFINESBYTYPE('0cWkNSOkj4NR4BPnUhNOGg',#41,$,$,(#162,#230,#263,#296),#190);
#833= IFCRELDEFINESBYTYPE('2lgspF4fLASPvkJTLaELoo',#41,$,$,(#459),#422);
#836= IFCRELDEFINESBYTYPE('2L_$0M71j36Br7Th3tmESY',#41,$,$,(#591),#554);
#839= IFCRELDEFINESBYTYPE('2PoafMvgH7LBm5sWMl0cJr',#41,$,$,(#620),#619);
#842= IFCRELCONNECTSPATHELEMENTS('0VDHJlvoT8ShdNrnS9poip',#41,'0hO3I46Cj8Xumml5mitUSY|0hO3I46Cj8Xumml5mitUG2','Structural',$,#162,#296,(),(),.ATEND.,.ATSTART.);
#847= IFCRELCONNECTSPATHELEMENTS('1kRaHgFAT5pB7TnKI7HSUp',#41,'0hO3I46Cj8Xumml5mitUSY|0hO3I46Cj8Xumml5mitUUc','Structural',$,#162,#230,(),(),.ATSTART.,.ATEND.);
#851= IFCRELCONNECTSPATHELEMENTS('3YBhxGzS50GvQaRT608vHo',#41,'0hO3I46Cj8Xumml5mitUUc|0hO3I46Cj8Xumml5mitUHZ','Structural',$,#230,#263,(),(),.ATSTART.,.ATEND.);
#856= IFCRELCONNECTSPATHELEMENTS('197iUoUBPEweYFfXE3zocw',#41,'0hO3I46Cj8Xumml5mitUHZ|0hO3I46Cj8Xumml5mitUG2','Structural',$,#263,#296,(),(),.ATSTART.,.ATEND.);
#860= IFCCARTESIANPOINT((577.499999999999,272.));
#862= IFCAXIS2PLACEMENT2D(#860,#23);
#863= IFCRECTANGLEPROFILEDEF(.AREA.,$,#862,1155.,543.999999999999);
#864= IFCAXIS2PLACEMENT3D(#6,#15,#19);
#865= IFCEXTRUDEDAREASOLID(#863,#864,#19,200.);
#866= IFCSHAPEREPRESENTATION(#98,'Body','SweptSolid',(#865));
#868= IFCPRODUCTDEFINITIONSHAPE($,$,(#866));
#870= IFCCARTESIANPOINT((792.,-100.,1005.));
#872= IFCAXIS2PLACEMENT3D(#870,$,$);
#873= IFCLOCALPLACEMENT(#210,#872);
#875= IFCOPENINGELEMENT('0hO3I46Cj8Xumml4yitUJ1',#41,'\X2\56FA5B9A\X0\:bath:329354:1',$,'Opening',#873,#868,$);
#878= IFCRELVOIDSELEMENT('0hO3I46Cj8Xumml4WitUJ1',#41,$,$,#230,#875);
#881= IFCRELFILLSELEMENT('0GoScCvQD32PwFCPbRzhAX',#41,$,$,#875,#459);
#884= IFCAXIS2PLACEMENT3D(#6,$,$);
#888= IFCCARTESIANPOINT((1097.,376.));
#890= IFCAXIS2PLACEMENT2D(#888,#27);
#891= IFCRECTANGLEPROFILEDEF(.AREA.,$,#890,752.,2194.);
#892= IFCAXIS2PLACEMENT3D(#6,#15,#19);
#893= IFCEXTRUDEDAREASOLID(#891,#892,#19,200.);
#894= IFCSHAPEREPRESENTATION(#98,'Body','SweptSolid',(#893));
#896= IFCPRODUCTDEFINITIONSHAPE($,$,(#894));
#898= IFCCARTESIANPOINT((515.,-100.,0.));
#900= IFCAXIS2PLACEMENT3D(#898,$,$);
#901= IFCLOCALPLACEMENT(#276,#900);
#903= IFCOPENINGELEMENT('0hO3I46Cj8Xumml4yitULk',#41,'\X2\53556247\X0\ - \X2\4E0E58999F50\X0\:bath:329509:1',$,'Opening',#901,#896,$);
#906= IFCRELVOIDSELEMENT('0hO3I46Cj8Xumml4WitULk',#41,$,$,#296,#903);
#909= IFCRELFILLSELEMENT('3c1m_$QDH3aQMLWOTf3xPh',#41,$,$,#903,#591);
#916= IFCPRESENTATIONLAYERASSIGNMENT('A-DOOR-____-OTLN',$,(#548,#583),$);
#918= IFCPRESENTATIONLAYERASSIGNMENT('A-FLOR-____-OTLN',$,(#660,#676,#737),$);
#920= IFCPRESENTATIONLAYERASSIGNMENT('A-GLAZ-____-OTLN',$,(#416,#451),$);
#922= IFCPRESENTATIONLAYERASSIGNMENT('A-WALL-____-OTLN',$,(#137,#155,#215,#226,#248,#259,#281,#292,#866,#894),$);
#924= IFCPRESENTATIONLAYERASSIGNMENT('P-PIPE-____-OTLN',$,(#615),$);
ENDSEC;

END-ISO-10303-21;
