ISO-10303-21;
HEADER;

/******************************************************************************************
* STEP Physical File produced by: The EXPRESS Data Manager Version 5.02.0100.07 : 28 Aug 2013
* Module:                         EDMstepFileFactory/EDMstandAlone
* Creation date:                  Tue Sep 10 22:08:40 2024
* Host:                           DESKTOP-DJKLJ22
* Database:                       C:\Users\123\AppData\Local\Temp\{21947F7D-D45F-4255-8323-282031A21F93}\ifc
* Database version:               5507
* Database creation date:         Tue Sep 10 22:08:39 2024
* Schema:                         IFC2X3
* Model:                          DataRepository.ifc
* Model creation date:            Tue Sep 10 22:08:39 2024
* Header model:                   DataRepository.ifc_HeaderModel
* Header model creation date:     Tue Sep 10 22:08:39 2024
* EDMuser:                        sdai-user
* EDMgroup:                       sdai-group
* License ID and type:            5605 : Permanent license. Expiry date: 
* EDMstepFileFactory options:     020000
******************************************************************************************/
FILE_DESCRIPTION(('ViewDefinition [CoordinationView_V2.0]'),'2;1');
FILE_NAME('\X2\987976EE7F1653F7\X0\','2024-09-10T22:08:40',(''),(''),'The EXPRESS Data Manager Version 5.02.0100.07 : 28 Aug 2013','20160225_1515(x64) - Exporter 17.0.416.0 - Alternate UI 17.12.14.0','');
FILE_SCHEMA(('IFC2X3'));
ENDSEC;

DATA;
#1= IFCORGANIZATION($,'Autodesk Revit 2017 (CHS)',$,$,$);
#5= IFCAPPLICATION(#1,'2017','Autodesk Revit 2017 (CHS)','Revit');
#6= IFCCARTESIANPOINT((0.,0.,0.));
#9= IFCCARTESIANPOINT((0.,0.));
#11= IFCDIRECTION((1.,0.,0.));
#13= IFCDIRECTION((-1.,0.,0.));
#15= IFCDIRECTION((0.,1.,0.));
#17= IFCDIRECTION((0.,-1.,0.));
#19= IFCDIRECTION((0.,0.,1.));
#21= IFCDIRECTION((0.,0.,-1.));
#23= IFCDIRECTION((1.,0.));
#25= IFCDIRECTION((-1.,0.));
#27= IFCDIRECTION((0.,1.));
#29= IFCDIRECTION((0.,-1.));
#31= IFCAXIS2PLACEMENT3D(#6,$,$);
#32= IFCLOCALPLACEMENT(#966,#31);
#35= IFCPERSON($,'','123',$,$,$,$,$);
#37= IFCORGANIZATION($,'','',$,$);
#38= IFCPERSONANDORGANIZATION(#35,#37,$);
#41= IFCOWNERHISTORY(#38,#5,$,.NOCHANGE.,$,$,$,1725778888);
#42= IFCSIUNIT(*,.LENGTHUNIT.,.MILLI.,.METRE.);
#43= IFCSIUNIT(*,.LENGTHUNIT.,$,.METRE.);
#44= IFCSIUNIT(*,.AREAUNIT.,$,.SQUARE_METRE.);
#45= IFCSIUNIT(*,.VOLUMEUNIT.,$,.CUBIC_METRE.);
#46= IFCSIUNIT(*,.PLANEANGLEUNIT.,$,.RADIAN.);
#47= IFCDIMENSIONALEXPONENTS(0,0,0,0,0,0,0);
#48= IFCMEASUREWITHUNIT(IFCRATIOMEASURE(0.0174532925199433),#46);
#49= IFCCONVERSIONBASEDUNIT(#47,.PLANEANGLEUNIT.,'DEGREE',#48);
#50= IFCSIUNIT(*,.MASSUNIT.,.KILO.,.GRAM.);
#51= IFCSIUNIT(*,.TIMEUNIT.,$,.SECOND.);
#52= IFCSIUNIT(*,.FREQUENCYUNIT.,$,.HERTZ.);
#53= IFCSIUNIT(*,.THERMODYNAMICTEMPERATUREUNIT.,$,.KELVIN.);
#54= IFCSIUNIT(*,.THERMODYNAMICTEMPERATUREUNIT.,$,.DEGREE_CELSIUS.);
#55= IFCDERIVEDUNITELEMENT(#50,1);
#56= IFCDERIVEDUNITELEMENT(#53,-1);
#57= IFCDERIVEDUNITELEMENT(#51,-3);
#58= IFCDERIVEDUNIT((#55,#56,#57),.THERMALTRANSMITTANCEUNIT.,$);
#60= IFCSIUNIT(*,.LENGTHUNIT.,.DECI.,.METRE.);
#61= IFCDERIVEDUNITELEMENT(#43,3);
#62= IFCDERIVEDUNITELEMENT(#51,-1);
#63= IFCDERIVEDUNIT((#61,#62),.VOLUMETRICFLOWRATEUNIT.,$);
#65= IFCSIUNIT(*,.ELECTRICCURRENTUNIT.,$,.AMPERE.);
#66= IFCSIUNIT(*,.ELECTRICVOLTAGEUNIT.,$,.VOLT.);
#67= IFCSIUNIT(*,.POWERUNIT.,$,.WATT.);
#68= IFCSIUNIT(*,.FORCEUNIT.,.KILO.,.NEWTON.);
#69= IFCSIUNIT(*,.ILLUMINANCEUNIT.,$,.LUX.);
#70= IFCSIUNIT(*,.LUMINOUSFLUXUNIT.,$,.LUMEN.);
#71= IFCSIUNIT(*,.LUMINOUSINTENSITYUNIT.,$,.CANDELA.);
#72= IFCDERIVEDUNITELEMENT(#50,-1);
#73= IFCDERIVEDUNITELEMENT(#43,-2);
#74= IFCDERIVEDUNITELEMENT(#51,3);
#75= IFCDERIVEDUNITELEMENT(#70,1);
#76= IFCDERIVEDUNIT((#72,#73,#74,#75),.USERDEFINED.,'Luminous Efficacy');
#78= IFCDERIVEDUNITELEMENT(#43,1);
#79= IFCDERIVEDUNITELEMENT(#51,-1);
#80= IFCDERIVEDUNIT((#78,#79),.LINEARVELOCITYUNIT.,$);
#82= IFCSIUNIT(*,.PRESSUREUNIT.,$,.PASCAL.);
#83= IFCDERIVEDUNITELEMENT(#43,-2);
#84= IFCDERIVEDUNITELEMENT(#50,1);
#85= IFCDERIVEDUNITELEMENT(#51,-2);
#86= IFCDERIVEDUNIT((#83,#84,#85),.USERDEFINED.,'Friction Loss');
#88= IFCUNITASSIGNMENT((#42,#44,#45,#49,#50,#51,#52,#54,#58,#63,#65,#66,#67,#68,#69,#70,#71,#76,#80,#82,#86));
#90= IFCAXIS2PLACEMENT3D(#6,$,$);
#91= IFCDIRECTION((6.12303176911189E-17,1.));
#93= IFCGEOMETRICREPRESENTATIONCONTEXT($,'Model',3,0.01,#90,#91);
#96= IFCGEOMETRICREPRESENTATIONSUBCONTEXT('Axis','Model',*,*,*,*,#93,$,.GRAPH_VIEW.,$);
#98= IFCGEOMETRICREPRESENTATIONSUBCONTEXT('Body','Model',*,*,*,*,#93,$,.MODEL_VIEW.,$);
#99= IFCGEOMETRICREPRESENTATIONSUBCONTEXT('Box','Model',*,*,*,*,#93,$,.MODEL_VIEW.,$);
#100= IFCGEOMETRICREPRESENTATIONSUBCONTEXT('FootPrint','Model',*,*,*,*,#93,$,.MODEL_VIEW.,$);
#101= IFCPROJECT('1lKuqJnFz22PovoAW1paW5',#41,'\X2\987976EE7F1653F7\X0\',$,$,'\X2\987976EE540D79F0\X0\','\X2\987976EE72B66001\X0\',(#93),#88);
#107= IFCPOSTALADDRESS($,$,$,$,('\X2\8BF757286B6459048F93516557305740\X0\'),$,'','','','\X2\4E2D56FD53174EAC\X0\');
#111= IFCBUILDING('1lKuqJnFz22PovoAW1paW4',#41,'',$,$,#32,$,'',.ELEMENT.,$,$,#107);
#117= IFCAXIS2PLACEMENT3D(#6,$,$);
#118= IFCLOCALPLACEMENT(#32,#117);
#120= IFCBUILDINGSTOREY('1lKuqJnFz22PovoAZ_CRR2',#41,'\X2\68079AD8\X0\ 1',$,$,#118,$,'\X2\68079AD8\X0\ 1',.ELEMENT.,0.);
#122= IFCCARTESIANPOINT((0.,0.,4000.));
#124= IFCAXIS2PLACEMENT3D(#122,$,$);
#1137= IFCAXIS2PLACEMENT3D(#6,#19,#13);
#979= IFCRELCONTAINEDINSPATIALSTRUCTURE('3Zu5Bv0LOHrPC10066FoQQ',#41,$,$,(#162,#230,#263,#296,#329,#362,#525,#575,#633,#943),#120);
#128= IFCCARTESIANPOINT((-192.672719240706,-3110.07437942348,0.));
#130= IFCAXIS2PLACEMENT3D(#128,#19,#15);
#131= IFCLOCALPLACEMENT(#118,#130);
#133= IFCCARTESIANPOINT((1760.,-0.));
#135= IFCPOLYLINE((#9,#133));
#137= IFCSHAPEREPRESENTATION(#96,'Axis','Curve2D',(#135));
#140= IFCCARTESIANPOINT((880.000000000001,-7.10542735760100E-15));
#142= IFCAXIS2PLACEMENT2D(#140,#25);
#143= IFCRECTANGLEPROFILEDEF(.AREA.,$,#142,1760.,198.);
#144= IFCAXIS2PLACEMENT3D(#6,$,$);
#145= IFCEXTRUDEDAREASOLID(#143,#144,#19,2475.);
#146= IFCCOLOURRGB($,0.501960784313725,0.501960784313725,0.501960784313725);
#147= IFCSURFACESTYLERENDERING(#146,0.,$,$,$,$,IFCNORMALISEDRATIOMEASURE(0.5),IFCSPECULAREXPONENT(64.),.NOTDEFINED.);
#148= IFCSURFACESTYLE('\X2\9ED88BA45899\X0\',.BOTH.,(#147));
#150= IFCPRESENTATIONSTYLEASSIGNMENT((#148));
#152= IFCSTYLEDITEM(#145,(#150),$);
#155= IFCSHAPEREPRESENTATION(#98,'Body','SweptSolid',(#145));
#158= IFCPRODUCTDEFINITIONSHAPE($,$,(#137,#155));
#162= IFCWALLSTANDARDCASE('37d4Mjxbb6zhor5wUW9yW_',#41,'\X2\57FA672C5899\X0\:198:329352',$,'\X2\57FA672C5899\X0\:198:329215',#131,#158,'329352');
#171= IFCMATERIAL('\X2\9ED88BA45899\X0\');
#174= IFCPRESENTATIONSTYLEASSIGNMENT((#148));
#176= IFCSTYLEDITEM($,(#174),$);
#178= IFCSTYLEDREPRESENTATION(#93,'Style','Material',(#176));
#181= IFCMATERIALDEFINITIONREPRESENTATION($,$,(#178),#171);
#184= IFCMATERIALLAYER(#171,198.,$);
#186= IFCMATERIALLAYERSET((#184),'\X2\57FA672C5899\X0\:198');
#189= IFCMATERIALLAYERSETUSAGE(#186,.AXIS2.,.NEGATIVE.,99.);
#190= IFCWALLTYPE('37d4Mjxbb6zhor5wUW9yj9',#41,'\X2\57FA672C5899\X0\:198',$,$,$,$,'329215',$,.STANDARD.);
#192= IFCPROPERTYSINGLEVALUE('Reference',$,IFCIDENTIFIER('198'),$);
#193= IFCPROPERTYSINGLEVALUE('LoadBearing',$,IFCBOOLEAN(.F.),$);
#194= IFCPROPERTYSINGLEVALUE('ExtendToStructure',$,IFCBOOLEAN(.F.),$);
#195= IFCPROPERTYSINGLEVALUE('IsExternal',$,IFCBOOLEAN(.T.),$);
#196= IFCPROPERTYSET('37d4Mjxbb6zhor75gW9yW_',#41,'Pset_WallCommon',$,(#192,#193,#194,#195));
#201= IFCRELDEFINESBYPROPERTIES('3u9uICFGTF$h8m9ZtSLft7',#41,$,$,(#162),#196);
#205= IFCCLASSIFICATION('http://www.csiorg.net/uniformat','1998',$,'Uniformat');
#207= IFCCARTESIANPOINT((-93.672719240706,-3011.07437942348,0.));
#209= IFCAXIS2PLACEMENT3D(#207,$,$);
#210= IFCLOCALPLACEMENT(#118,#209);
#211= IFCCARTESIANPOINT((2961.,0.));
#213= IFCPOLYLINE((#9,#211));
#215= IFCSHAPEREPRESENTATION(#96,'Axis','Curve2D',(#213));
#217= IFCCARTESIANPOINT((1480.5,0.));
#219= IFCAXIS2PLACEMENT2D(#217,#25);
#220= IFCRECTANGLEPROFILEDEF(.AREA.,$,#219,2961.,198.);
#221= IFCAXIS2PLACEMENT3D(#6,$,$);
#222= IFCEXTRUDEDAREASOLID(#220,#221,#19,2475.);
#223= IFCSTYLEDITEM(#222,(#150),$);
#226= IFCSHAPEREPRESENTATION(#98,'Body','SweptSolid',(#222));
#228= IFCPRODUCTDEFINITIONSHAPE($,$,(#215,#226));
#230= IFCWALLSTANDARDCASE('37d4Mjxbb6zhor5wUW9yXO',#41,'\X2\57FA672C5899\X0\:198:329454',$,'\X2\57FA672C5899\X0\:198:329215',#210,#228,'329454');
#233= IFCMATERIALLAYERSETUSAGE(#186,.AXIS2.,.NEGATIVE.,99.);
#234= IFCPROPERTYSET('37d4Mjxbb6zhor75gW9yXO',#41,'Pset_WallCommon',$,(#192,#193,#194,#195));
#236= IFCRELDEFINESBYPROPERTIES('2VLOy9kHnDXxUa5aQLUdqN',#41,$,$,(#230),#234);
#240= IFCCARTESIANPOINT((2768.32728075929,-2912.07437942349,0.));
#242= IFCAXIS2PLACEMENT3D(#240,#19,#15);
#243= IFCLOCALPLACEMENT(#118,#242);
#244= IFCCARTESIANPOINT((957.,-0.));
#246= IFCPOLYLINE((#9,#244));
#248= IFCSHAPEREPRESENTATION(#96,'Axis','Curve2D',(#246));
#250= IFCCARTESIANPOINT((478.5,-1.35003119794419E-13));
#252= IFCAXIS2PLACEMENT2D(#250,#25);
#253= IFCRECTANGLEPROFILEDEF(.AREA.,$,#252,957.000000000001,198.);
#254= IFCAXIS2PLACEMENT3D(#6,$,$);
#255= IFCEXTRUDEDAREASOLID(#253,#254,#19,2475.);
#256= IFCSTYLEDITEM(#255,(#150),$);
#259= IFCSHAPEREPRESENTATION(#98,'Body','SweptSolid',(#255));
#261= IFCPRODUCTDEFINITIONSHAPE($,$,(#248,#259));
#263= IFCWALLSTANDARDCASE('37d4Mjxbb6zhor5wUW9yc3',#41,'\X2\57FA672C5899\X0\:198:329525',$,'\X2\57FA672C5899\X0\:198:329215',#243,#261,'329525');
#266= IFCMATERIALLAYERSETUSAGE(#186,.AXIS2.,.NEGATIVE.,99.);
#267= IFCPROPERTYSET('37d4Mjxbb6zhor75gW9yc3',#41,'Pset_WallCommon',$,(#192,#193,#194,#195));
#269= IFCRELDEFINESBYPROPERTIES('1SwqyLbwHFLv$nmP06yfpE',#41,$,$,(#263),#267);
#273= IFCCARTESIANPOINT((2867.32728075929,-1856.07437942349,0.));
#275= IFCAXIS2PLACEMENT3D(#273,#19,#13);
#276= IFCLOCALPLACEMENT(#118,#275);
#277= IFCCARTESIANPOINT((504.,0.));
#279= IFCPOLYLINE((#9,#277));
#281= IFCSHAPEREPRESENTATION(#96,'Axis','Curve2D',(#279));
#283= IFCCARTESIANPOINT((252.,-9.23705556488130E-14));
#285= IFCAXIS2PLACEMENT2D(#283,#25);
#286= IFCRECTANGLEPROFILEDEF(.AREA.,$,#285,504.,198.);
#287= IFCAXIS2PLACEMENT3D(#6,$,$);
#288= IFCEXTRUDEDAREASOLID(#286,#287,#19,2475.);
#289= IFCSTYLEDITEM(#288,(#150),$);
#292= IFCSHAPEREPRESENTATION(#98,'Body','SweptSolid',(#288));
#294= IFCPRODUCTDEFINITIONSHAPE($,$,(#281,#292));
#296= IFCWALLSTANDARDCASE('37d4Mjxbb6zhor5wUW9yaK',#41,'\X2\57FA672C5899\X0\:198:329634',$,'\X2\57FA672C5899\X0\:198:329215',#276,#294,'329634');
#299= IFCMATERIALLAYERSETUSAGE(#186,.AXIS2.,.NEGATIVE.,99.);
#300= IFCPROPERTYSET('37d4Mjxbb6zhor75gW9yaK',#41,'Pset_WallCommon',$,(#192,#193,#194,#195));
#302= IFCRELDEFINESBYPROPERTIES('3isZ0Q5p18PPHII1zgwwMA',#41,$,$,(#296),#300);
#306= IFCCARTESIANPOINT((2462.32728075929,-1757.07437942349,0.));
#308= IFCAXIS2PLACEMENT3D(#306,#19,#15);
#309= IFCLOCALPLACEMENT(#118,#308);
#310= IFCCARTESIANPOINT((407.,0.));
#312= IFCPOLYLINE((#9,#310));
#314= IFCSHAPEREPRESENTATION(#96,'Axis','Curve2D',(#312));
#316= IFCCARTESIANPOINT((203.500000000001,-1.35003119794419E-13));
#318= IFCAXIS2PLACEMENT2D(#316,#25);
#319= IFCRECTANGLEPROFILEDEF(.AREA.,$,#318,407.000000000002,198.);
#320= IFCAXIS2PLACEMENT3D(#6,$,$);
#321= IFCEXTRUDEDAREASOLID(#319,#320,#19,2475.);
#322= IFCSTYLEDITEM(#321,(#150),$);
#325= IFCSHAPEREPRESENTATION(#98,'Body','SweptSolid',(#321));
#327= IFCPRODUCTDEFINITIONSHAPE($,$,(#314,#325));
#329= IFCWALLSTANDARDCASE('37d4Mjxbb6zhor5wUW9yRT',#41,'\X2\57FA672C5899\X0\:198:329835',$,'\X2\57FA672C5899\X0\:198:329215',#309,#327,'329835');
#332= IFCMATERIALLAYERSETUSAGE(#186,.AXIS2.,.NEGATIVE.,99.);
#333= IFCPROPERTYSET('37d4Mjxbb6zhor75gW9yRT',#41,'Pset_WallCommon',$,(#192,#193,#194,#195));
#335= IFCRELDEFINESBYPROPERTIES('11QHJRs0f5e8DMfUUr8bh5',#41,$,$,(#329),#333);
#339= IFCCARTESIANPOINT((2363.32728075929,-1449.07437942349,0.));
#341= IFCAXIS2PLACEMENT3D(#339,#19,#13);
#342= IFCLOCALPLACEMENT(#118,#341);
#343= IFCCARTESIANPOINT((2457.,-0.));
#345= IFCPOLYLINE((#9,#343));
#347= IFCSHAPEREPRESENTATION(#96,'Axis','Curve2D',(#345));
#349= IFCCARTESIANPOINT((1228.5,-4.97379915032070E-14));
#351= IFCAXIS2PLACEMENT2D(#349,#25);
#352= IFCRECTANGLEPROFILEDEF(.AREA.,$,#351,2457.,198.);
#353= IFCAXIS2PLACEMENT3D(#6,$,$);
#354= IFCEXTRUDEDAREASOLID(#352,#353,#19,2475.);
#355= IFCSTYLEDITEM(#354,(#150),$);
#358= IFCSHAPEREPRESENTATION(#98,'Body','SweptSolid',(#354));
#360= IFCPRODUCTDEFINITIONSHAPE($,$,(#347,#358));
#362= IFCWALLSTANDARDCASE('37d4Mjxbb6zhor5wUW9yOh',#41,'\X2\57FA672C5899\X0\:198:329885',$,'\X2\57FA672C5899\X0\:198:329215',#342,#360,'329885');
#365= IFCMATERIALLAYERSETUSAGE(#186,.AXIS2.,.NEGATIVE.,99.);
#366= IFCPROPERTYSET('37d4Mjxbb6zhor75gW9yOh',#41,'Pset_WallCommon',$,(#192,#193,#194,#195));
#368= IFCRELDEFINESBYPROPERTIES('1AAC6TwmfAWvAvoR9fWsdQ',#41,$,$,(#362),#366);
#372= IFCCARTESIANPOINT((-8.43769498715119E-15,0.));
#374= IFCAXIS2PLACEMENT2D(#372,#23);
#375= IFCRECTANGLEPROFILEDEF(.AREA.,'0915 x 1220mm',#374,12.,442.999999999997);
#376= IFCCARTESIANPOINT((284.500000000006,157.,63.));
#378= IFCAXIS2PLACEMENT3D(#376,#19,#17);
#379= IFCEXTRUDEDAREASOLID(#375,#378,#19,1118.00000000001);
#380= IFCCARTESIANPOINT((-265.5,-603.));
#382= IFCCARTESIANPOINT((265.5,-603.));
#384= IFCCARTESIANPOINT((265.5,603.));
#386= IFCCARTESIANPOINT((-265.5,603.));
#388= IFCPOLYLINE((#380,#382,#384,#386,#380));
#390= IFCCARTESIANPOINT((-221.5,-559.));
#392= IFCCARTESIANPOINT((-221.5,559.));
#394= IFCCARTESIANPOINT((221.499999999997,559.));
#396= IFCCARTESIANPOINT((221.499999999997,-559.));
#398= IFCPOLYLINE((#390,#392,#394,#396,#390));
#400= IFCARBITRARYPROFILEDEFWITHVOIDS(.AREA.,'0915 x 1220mm',#388,(#398));
#402= IFCCARTESIANPOINT((284.500000000007,135.,622.));
#404= IFCAXIS2PLACEMENT3D(#402,#15,#11);
#405= IFCEXTRUDEDAREASOLID(#400,#404,#19,44.0000000000274);
#406= IFCCARTESIANPOINT((-284.5,-622.));
#408= IFCCARTESIANPOINT((284.5,-622.));
#410= IFCCARTESIANPOINT((284.5,622.));
#412= IFCCARTESIANPOINT((-284.5,622.));
#414= IFCPOLYLINE((#406,#408,#410,#412,#406));
#416= IFCCARTESIANPOINT((-265.500000000001,-603.));
#418= IFCCARTESIANPOINT((-265.500000000001,603.));
#420= IFCCARTESIANPOINT((265.499999999999,603.));
#422= IFCCARTESIANPOINT((265.499999999999,-603.));
#424= IFCPOLYLINE((#416,#418,#420,#422,#416));
#426= IFCARBITRARYPROFILEDEFWITHVOIDS(.AREA.,'0915 x 1220mm',#414,(#424));
#428= IFCCARTESIANPOINT((284.500000000008,135.,622.));
#430= IFCAXIS2PLACEMENT3D(#428,#15,#11);
#431= IFCEXTRUDEDAREASOLID(#426,#430,#19,63.0000000000274);
#432= IFCCARTESIANPOINT((-284.5,-622.));
#434= IFCCARTESIANPOINT((284.5,-622.));
#436= IFCCARTESIANPOINT((284.5,622.));
#438= IFCCARTESIANPOINT((-284.5,622.));
#440= IFCPOLYLINE((#432,#434,#436,#438,#432));
#442= IFCCARTESIANPOINT((-252.5,-590.));
#444= IFCCARTESIANPOINT((-252.5,590.));
#446= IFCCARTESIANPOINT((252.5,590.));
#448= IFCCARTESIANPOINT((252.5,-590.));
#450= IFCPOLYLINE((#442,#444,#446,#448,#442));
#452= IFCARBITRARYPROFILEDEFWITHVOIDS(.AREA.,'0915 x 1220mm',#440,(#450));
#454= IFCCARTESIANPOINT((284.500000000009,0.,622.));
#456= IFCAXIS2PLACEMENT3D(#454,#15,#11);
#457= IFCEXTRUDEDAREASOLID(#452,#456,#19,134.999999999973);
#458= IFCCOLOURRGB($,0.,0.501960784313725,0.752941176470588);
#459= IFCSURFACESTYLERENDERING(#458,0.9,$,$,$,$,IFCNORMALISEDRATIOMEASURE(0.5),IFCSPECULAREXPONENT(12.),.NOTDEFINED.);
#460= IFCSURFACESTYLE('\X2\73BB7483\X0\',.BOTH.,(#459));
#462= IFCPRESENTATIONSTYLEASSIGNMENT((#460));
#464= IFCSTYLEDITEM(#379,(#462),$);
#467= IFCCOLOURRGB($,0.87843137254902,0.698039215686274,0.494117647058824);
#468= IFCSURFACESTYLERENDERING(#467,0.,$,$,$,$,IFCNORMALISEDRATIOMEASURE(0.5),IFCSPECULAREXPONENT(128.),.NOTDEFINED.);
#469= IFCSURFACESTYLE('\X2\7A976247\X0\',.BOTH.,(#468));
#471= IFCPRESENTATIONSTYLEASSIGNMENT((#469));
#473= IFCSTYLEDITEM(#405,(#471),$);
#476= IFCSTYLEDITEM(#431,(#471),$);
#479= IFCSTYLEDITEM(#457,(#471),$);
#482= IFCSHAPEREPRESENTATION(#98,'Body','SweptSolid',(#379,#405,#431,#457));
#484= IFCAXIS2PLACEMENT3D(#6,$,$);
#485= IFCREPRESENTATIONMAP(#484,#482);
#487= IFCWINDOWLININGPROPERTIES('1W2iTtqnfFO8Jks8uU9zb_',#41,'\X2\56FA5B9A\X0\:0915 x 1220mm:331064',$,$,$,$,$,$,$,$,$,$);
#488= IFCWINDOWSTYLE('37d4Mjxbb6zhor5xAW9yCr',#41,'0915 x 1220mm',$,$,(#487),(#485),'93304',.NOTDEFINED.,.NOTDEFINED.,.F.,.F.);
#492= IFCMATERIAL('\X2\73BB7483\X0\');
#493= IFCPRESENTATIONSTYLEASSIGNMENT((#460));
#495= IFCSTYLEDITEM($,(#493),$);
#497= IFCSTYLEDREPRESENTATION(#93,'Style','Material',(#495));
#499= IFCMATERIALDEFINITIONREPRESENTATION($,$,(#497),#492);
#502= IFCMATERIAL('\X2\7A976247\X0\');
#503= IFCPRESENTATIONSTYLEASSIGNMENT((#469));
#505= IFCSTYLEDITEM($,(#503),$);
#507= IFCSTYLEDREPRESENTATION(#93,'Style','Material',(#505));
#509= IFCMATERIALDEFINITIONREPRESENTATION($,$,(#507),#502);
#512= IFCMATERIALLIST((#492,#502));
#514= IFCCARTESIANTRANSFORMATIONOPERATOR3D($,$,#6,1.,$);
#515= IFCMAPPEDITEM(#485,#514);
#517= IFCSHAPEREPRESENTATION(#98,'Body','MappedRepresentation',(#515));
#519= IFCPRODUCTDEFINITIONSHAPE($,$,(#517));
#521= IFCCARTESIANPOINT((-93.6727192407055,-2514.57437942348,802.));
#523= IFCAXIS2PLACEMENT3D(#521,#19,#15);
#1110= IFCLOCALPLACEMENT(#1096,#1109);
#525= IFCWINDOW('37d4Mjxbb6zhor5wUW9yEE',#41,'\X2\56FA5B9A\X0\:0915 x 1220mm:331064',$,'0915 x 1220mm',#1110,#519,'331064',1244.,568.999999999999);
#528= IFCMATERIALLIST((#492,#502));
#530= IFCPROPERTYSINGLEVALUE('Reference',$,IFCIDENTIFIER('0915 x 1220mm'),$);
#531= IFCPROPERTYSINGLEVALUE('ThermalTransmittance',$,IFCTHERMALTRANSMITTANCEMEASURE(3.6886),$);
#532= IFCPROPERTYSET('37d4Mjxbb6zhor75cW9yEE',#41,'Pset_WindowCommon',$,(#195,#530,#531));
#534= IFCRELDEFINESBYPROPERTIES('05ms3RfTfBvQTuF99Vr1yu',#41,$,$,(#525),#532);
#541= IFCAXIS2PLACEMENT3D(#6,$,$);
#542= IFCLOCALPLACEMENT(#118,#541);
#543= IFCCARTESIANPOINT((-773.666666666664,-1740.));
#545= IFCCARTESIANPOINT((590.333333333337,-1740.));
#547= IFCCARTESIANPOINT((590.333333333333,717.));
#549= IFCCARTESIANPOINT((183.333333333331,717.));
#551= IFCCARTESIANPOINT((183.333333333331,1023.));
#553= IFCCARTESIANPOINT((-773.666666666668,1023.));
#555= IFCPOLYLINE((#543,#545,#547,#549,#551,#553,#543));
#557= IFCARBITRARYCLOSEDPROFILEDEF(.AREA.,'\X2\5E3889C4\X0\ - 150mm',#555);
#558= IFCCARTESIANPOINT((1646.32728075929,-2138.40771275682,2475.));
#560= IFCAXIS2PLACEMENT3D(#558,#21,#15);
#561= IFCEXTRUDEDAREASOLID(#557,#560,#19,150.);
#562= IFCCOLOURRGB($,0.498039215686275,0.498039215686275,0.498039215686275);
#563= IFCSURFACESTYLERENDERING(#562,0.,$,$,$,$,IFCNORMALISEDRATIOMEASURE(0.5),IFCSPECULAREXPONENT(64.),.NOTDEFINED.);
#564= IFCSURFACESTYLE('\X2\9ED88BA4697C677F\X0\',.BOTH.,(#563));
#566= IFCPRESENTATIONSTYLEASSIGNMENT((#564));
#568= IFCSTYLEDITEM(#561,(#566),$);
#571= IFCSHAPEREPRESENTATION(#98,'Body','SweptSolid',(#561));
#573= IFCPRODUCTDEFINITIONSHAPE($,$,(#571));
#575= IFCSLAB('37d4Mjxbb6zhor5wUW9yDW',#41,'\X2\697C677F\X0\:\X2\5E3889C4\X0\ - 150mm:331222',$,'\X2\697C677F\X0\:\X2\5E3889C4\X0\ - 150mm',#542,#573,'331222',.FLOOR.);
#578= IFCMATERIAL('\X2\9ED88BA4697C677F\X0\');
#579= IFCPRESENTATIONSTYLEASSIGNMENT((#564));
#581= IFCSTYLEDITEM($,(#579),$);
#583= IFCSTYLEDREPRESENTATION(#93,'Style','Material',(#581));
#585= IFCMATERIALDEFINITIONREPRESENTATION($,$,(#583),#578);
#588= IFCMATERIALLAYER(#578,150.,$);
#589= IFCMATERIALLAYERSET((#588),'\X2\697C677F\X0\:\X2\5E3889C4\X0\ - 150mm');
#592= IFCMATERIALLAYERSETUSAGE(#589,.AXIS3.,.POSITIVE.,0.);
#593= IFCPROPERTYSINGLEVALUE('Reference',$,IFCIDENTIFIER('\X2\5E3889C4\X0\ - 150mm'),$);
#594= IFCPROPERTYSINGLEVALUE('IsExternal',$,IFCBOOLEAN(.F.),$);
#595= IFCPROPERTYSINGLEVALUE('LoadBearing',$,IFCBOOLEAN(.T.),$);
#596= IFCPROPERTYSINGLEVALUE('PitchAngle',$,IFCPLANEANGLEMEASURE(0.),$);
#597= IFCPROPERTYSET('37d4Mjxbb6zhor75oW9yDW',#41,'Pset_SlabCommon',$,(#593,#594,#595,#596));
#599= IFCRELDEFINESBYPROPERTIES('1OGX631MPAoO8GVgStgXxK',#41,$,$,(#575),#597);
#605= IFCAXIS2PLACEMENT3D(#6,$,$);
#606= IFCLOCALPLACEMENT(#118,#605);
#607= IFCCARTESIANPOINT((-1037.66666666666,-2004.));
#609= IFCCARTESIANPOINT((722.333333333338,-2004.));
#611= IFCCARTESIANPOINT((722.333333333333,849.));
#613= IFCCARTESIANPOINT((315.333333333332,849.));
#615= IFCCARTESIANPOINT((315.333333333331,1155.));
#617= IFCCARTESIANPOINT((-1037.66666666667,1155.));
#619= IFCPOLYLINE((#607,#609,#611,#613,#615,#617,#607));
#621= IFCARBITRARYCLOSEDPROFILEDEF(.AREA.,'43',#619);
#622= IFCCARTESIANPOINT((1712.32728075929,-2072.40771275682,0.));
#624= IFCAXIS2PLACEMENT3D(#622,#21,#15);
#625= IFCEXTRUDEDAREASOLID(#621,#624,#19,43.);
#626= IFCSTYLEDITEM(#625,(#566),$);
#629= IFCSHAPEREPRESENTATION(#98,'Body','SweptSolid',(#625));
#631= IFCPRODUCTDEFINITIONSHAPE($,$,(#629));
#633= IFCSLAB('37d4Mjxbb6zhor5wUW9yD5',#41,'\X2\697C677F\X0\:43:331251',$,'\X2\697C677F\X0\:43',#606,#631,'331251',.FLOOR.);
#636= IFCMATERIALLAYER(#578,43.,$);
#637= IFCMATERIALLAYERSET((#636),'\X2\697C677F\X0\:43');
#640= IFCMATERIALLAYERSETUSAGE(#637,.AXIS3.,.POSITIVE.,0.);
#641= IFCPROPERTYSINGLEVALUE('Reference',$,IFCIDENTIFIER('43'),$);
#642= IFCPROPERTYSET('37d4Mjxbb6zhor75oW9yD5',#41,'Pset_SlabCommon',$,(#594,#595,#596,#641));
#644= IFCRELDEFINESBYPROPERTIES('3EeS6oOln4g8zXHlp6hlO2',#41,$,$,(#633),#642);
#648= IFCCARTESIANPOINT((1.35447209004269E-13,0.));
#650= IFCAXIS2PLACEMENT2D(#648,#23);
#651= IFCRECTANGLEPROFILEDEF(.AREA.,'livingroom 2',#650,9.99999999999989,292.);
#652= IFCCARTESIANPOINT((588.,79.,1156.));
#654= IFCAXIS2PLACEMENT3D(#652,#19,#17);
#655= IFCEXTRUDEDAREASOLID(#651,#654,#19,925.999999999998);
#656= IFCCARTESIANPOINT((1.35447209004269E-13,4.26325641456060E-14));
#658= IFCAXIS2PLACEMENT2D(#656,#23);
#659= IFCRECTANGLEPROFILEDEF(.AREA.,'livingroom 2',#658,9.99999999999989,291.999999999999);
#660= IFCCARTESIANPOINT((980.,79.,1156.));
#662= IFCAXIS2PLACEMENT3D(#660,#19,#17);
#663= IFCEXTRUDEDAREASOLID(#659,#662,#19,925.999999999998);
#664= IFCCARTESIANPOINT((1.35447209004269E-13,0.));
#666= IFCAXIS2PLACEMENT2D(#664,#23);
#667= IFCRECTANGLEPROFILEDEF(.AREA.,'livingroom 2',#666,9.99999999999989,292.);
#668= IFCCARTESIANPOINT((588.,79.,150.));
#670= IFCAXIS2PLACEMENT3D(#668,#19,#17);
#671= IFCEXTRUDEDAREASOLID(#667,#670,#19,925.999999999991);
#672= IFCCARTESIANPOINT((1.35447209004269E-13,4.26325641456060E-14));
#674= IFCAXIS2PLACEMENT2D(#672,#23);
#675= IFCRECTANGLEPROFILEDEF(.AREA.,'livingroom 2',#674,9.99999999999989,291.999999999999);
#676= IFCCARTESIANPOINT((980.,79.,150.));
#678= IFCAXIS2PLACEMENT3D(#676,#19,#17);
#679= IFCEXTRUDEDAREASOLID(#675,#678,#19,925.999999999991);
#680= IFCCARTESIANPOINT((-1.35447209004269E-13,0.));
#682= IFCAXIS2PLACEMENT2D(#680,#23);
#683= IFCRECTANGLEPROFILEDEF(.AREA.,'livingroom 2',#682,9.99999999999989,292.);
#684= IFCCARTESIANPOINT((246.,119.,1156.));
#686= IFCAXIS2PLACEMENT3D(#684,#19,#17);
#687= IFCEXTRUDEDAREASOLID(#683,#686,#19,925.999999999998);
#688= IFCCARTESIANPOINT((1.35447209004269E-13,-2.84217094304040E-14));
#690= IFCAXIS2PLACEMENT2D(#688,#23);
#691= IFCRECTANGLEPROFILEDEF(.AREA.,'livingroom 2',#690,9.99999999999989,291.999999999999);
#692= IFCCARTESIANPOINT((1322.,119.,1156.));
#694= IFCAXIS2PLACEMENT3D(#692,#19,#17);
#695= IFCEXTRUDEDAREASOLID(#691,#694,#19,925.999999999998);
#696= IFCCARTESIANPOINT((1.35447209004269E-13,-2.84217094304040E-14));
#698= IFCAXIS2PLACEMENT2D(#696,#23);
#699= IFCRECTANGLEPROFILEDEF(.AREA.,'livingroom 2',#698,9.99999999999989,291.999999999999);
#700= IFCCARTESIANPOINT((1322.,119.,150.));
#702= IFCAXIS2PLACEMENT3D(#700,#19,#17);
#703= IFCEXTRUDEDAREASOLID(#699,#702,#19,925.999999999991);
#704= IFCCARTESIANPOINT((-1.35447209004269E-13,0.));
#706= IFCAXIS2PLACEMENT2D(#704,#23);
#707= IFCRECTANGLEPROFILEDEF(.AREA.,'livingroom 2',#706,9.99999999999989,292.);
#708= IFCCARTESIANPOINT((246.,119.,150.));
#710= IFCAXIS2PLACEMENT3D(#708,#19,#17);
#711= IFCEXTRUDEDAREASOLID(#707,#710,#19,925.999999999991);
#712= IFCCARTESIANPOINT((-1078.5,-784.));
#714= IFCCARTESIANPOINT((1103.5,-784.));
#716= IFCCARTESIANPOINT((1103.5,784.));
#718= IFCCARTESIANPOINT((-1078.5,784.));
#720= IFCCARTESIANPOINT((-1078.5,734.));
#722= IFCCARTESIANPOINT((1053.5,734.));
#724= IFCCARTESIANPOINT((1053.5,-734.));
#726= IFCCARTESIANPOINT((-1078.5,-734.));
#728= IFCPOLYLINE((#712,#714,#716,#718,#720,#722,#724,#726,#712));
#730= IFCARBITRARYCLOSEDPROFILEDEF(.AREA.,'livingroom 2',#728);
#731= IFCCARTESIANPOINT((784.,49.,1078.5));
#733= IFCAXIS2PLACEMENT3D(#731,#15,#19);
#734= IFCEXTRUDEDAREASOLID(#730,#733,#19,99.9999999999924);
#735= IFCCARTESIANPOINT((-1066.,-196.));
#737= IFCCARTESIANPOINT((1066.,-196.));
#739= IFCCARTESIANPOINT((1066.,196.));
#741= IFCCARTESIANPOINT((-1066.,196.));
#743= IFCPOLYLINE((#735,#737,#739,#741,#735));
#745= IFCCARTESIANPOINT((1016.,-146.));
#747= IFCCARTESIANPOINT((90.,-146.));
#749= IFCCARTESIANPOINT((90.,146.));
#751= IFCCARTESIANPOINT((1016.,146.));
#753= IFCPOLYLINE((#745,#747,#749,#751,#745));
#755= IFCCARTESIANPOINT((10.,-146.));
#757= IFCCARTESIANPOINT((-916.,-146.));
#759= IFCCARTESIANPOINT((-916.,146.));
#761= IFCCARTESIANPOINT((10.,146.));
#763= IFCPOLYLINE((#755,#757,#759,#761,#755));
#765= IFCARBITRARYPROFILEDEFWITHVOIDS(.AREA.,'livingroom 2',#743,(#753,#763));
#767= IFCCARTESIANPOINT((980.,59.,1066.));
#769= IFCAXIS2PLACEMENT3D(#767,#15,#19);
#770= IFCEXTRUDEDAREASOLID(#765,#769,#19,39.9999999999963);
#771= IFCCARTESIANPOINT((-196.,-1066.));
#773= IFCCARTESIANPOINT((196.,-1066.));
#775= IFCCARTESIANPOINT((196.,1066.));
#777= IFCCARTESIANPOINT((-196.,1066.));
#779= IFCPOLYLINE((#771,#773,#775,#777,#771));
#781= IFCCARTESIANPOINT((-146.,1016.));
#783= IFCCARTESIANPOINT((146.,1016.));
#785= IFCCARTESIANPOINT((146.,90.));
#787= IFCCARTESIANPOINT((-146.,90.));
#789= IFCPOLYLINE((#781,#783,#785,#787,#781));
#791= IFCCARTESIANPOINT((-146.,10.));
#793= IFCCARTESIANPOINT((146.,10.));
#795= IFCCARTESIANPOINT((146.,-916.));
#797= IFCCARTESIANPOINT((-146.,-916.));
#799= IFCPOLYLINE((#791,#793,#795,#797,#791));
#801= IFCARBITRARYPROFILEDEFWITHVOIDS(.AREA.,'livingroom 2',#779,(#789,#799));
#803= IFCCARTESIANPOINT((588.,59.,1066.));
#805= IFCAXIS2PLACEMENT3D(#803,#15,#13);
#806= IFCEXTRUDEDAREASOLID(#801,#805,#19,39.9999999999936);
#807= IFCCARTESIANPOINT((-196.,-1066.));
#809= IFCCARTESIANPOINT((196.,-1066.));
#811= IFCCARTESIANPOINT((196.,1066.));
#813= IFCCARTESIANPOINT((-196.,1066.));
#815= IFCPOLYLINE((#807,#809,#811,#813,#807));
#817= IFCCARTESIANPOINT((-146.,1016.));
#819= IFCCARTESIANPOINT((146.,1016.));
#821= IFCCARTESIANPOINT((146.,90.));
#823= IFCCARTESIANPOINT((-146.,90.));
#825= IFCPOLYLINE((#817,#819,#821,#823,#817));
#827= IFCCARTESIANPOINT((-146.,10.));
#829= IFCCARTESIANPOINT((146.,10.));
#831= IFCCARTESIANPOINT((146.,-916.));
#833= IFCCARTESIANPOINT((-146.,-916.));
#835= IFCPOLYLINE((#827,#829,#831,#833,#827));
#837= IFCARBITRARYPROFILEDEFWITHVOIDS(.AREA.,'livingroom 2',#815,(#825,#835));
#839= IFCCARTESIANPOINT((246.,99.,1066.));
#841= IFCAXIS2PLACEMENT3D(#839,#15,#13);
#842= IFCEXTRUDEDAREASOLID(#837,#841,#19,39.9999999999985);
#843= IFCCARTESIANPOINT((-1066.,-196.));
#845= IFCCARTESIANPOINT((1066.,-196.));
#847= IFCCARTESIANPOINT((1066.,196.));
#849= IFCCARTESIANPOINT((-1066.,196.));
#851= IFCPOLYLINE((#843,#845,#847,#849,#843));
#853= IFCCARTESIANPOINT((1016.,-146.));
#855= IFCCARTESIANPOINT((90.,-146.));
#857= IFCCARTESIANPOINT((90.,146.));
#859= IFCCARTESIANPOINT((1016.,146.));
#861= IFCPOLYLINE((#853,#855,#857,#859,#853));
#863= IFCCARTESIANPOINT((10.,-146.));
#865= IFCCARTESIANPOINT((-916.,-146.));
#867= IFCCARTESIANPOINT((-916.,146.));
#869= IFCCARTESIANPOINT((10.,146.));
#871= IFCPOLYLINE((#863,#865,#867,#869,#863));
#873= IFCARBITRARYPROFILEDEFWITHVOIDS(.AREA.,'livingroom 2',#851,(#861,#871));
#875= IFCCARTESIANPOINT((1322.,99.,1066.));
#877= IFCAXIS2PLACEMENT3D(#875,#15,#19);
#878= IFCEXTRUDEDAREASOLID(#873,#877,#19,39.9999999999958);
#879= IFCSTYLEDITEM(#655,(#462),$);
#882= IFCSTYLEDITEM(#663,(#462),$);
#885= IFCSTYLEDITEM(#671,(#462),$);
#888= IFCSTYLEDITEM(#679,(#462),$);
#891= IFCSTYLEDITEM(#687,(#462),$);
#894= IFCSTYLEDITEM(#695,(#462),$);
#897= IFCSTYLEDITEM(#703,(#462),$);
#900= IFCSTYLEDITEM(#711,(#462),$);
#903= IFCSTYLEDITEM(#734,(#462),$);
#906= IFCSTYLEDITEM(#770,(#462),$);
#909= IFCSTYLEDITEM(#806,(#462),$);
#912= IFCSTYLEDITEM(#842,(#462),$);
#915= IFCSTYLEDITEM(#878,(#462),$);
#918= IFCSHAPEREPRESENTATION(#98,'Body','SweptSolid',(#655,#663,#671,#679,#687,#695,#703,#711,#734,#770,#806,#842,#878));
#920= IFCAXIS2PLACEMENT3D(#6,$,$);
#921= IFCREPRESENTATIONMAP(#920,#918);
#922= IFCDOORLININGPROPERTIES('37d4Mjxbb6zhor5wQW9y3K',#41,'\X2\56DB624763A862C995E8\X0\ 1:livingroom 2:331362',$,$,$,$,$,$,$,$,$,$,$,$);
#923= IFCDOORPANELPROPERTIES('1Zprpdz$j7N9BLc4HyNhAw',#41,'\X2\56DB624763A862C995E8\X0\ 1:livingroom 2:331362',$,$,.NOTDEFINED.,$,.NOTDEFINED.,$);
#924= IFCDOORSTYLE('37d4Mjxbb6zhor5xAW9yEw',#41,'livingroom 2',$,$,(#922,#923),(#921),'330008',.NOTDEFINED.,.NOTDEFINED.,.F.,.F.);
#929= IFCCLASSIFICATIONREFERENCE('http://www.csiorg.net/uniformat','B2030110','Exterior Glazed Doors - Aluminum',#205);
#930= IFCRELASSOCIATESCLASSIFICATION('09Go4nPDvFLfqYoSpMTteo',#41,'Uniformat Classification','',(#924),#929);
#933= IFCMAPPEDITEM(#921,#514);
#935= IFCSHAPEREPRESENTATION(#98,'Body','MappedRepresentation',(#933));
#937= IFCPRODUCTDEFINITIONSHAPE($,$,(#935));
#939= IFCCARTESIANPOINT((2071.8272807593,-2912.07437942349,0.));
#941= IFCAXIS2PLACEMENT3D(#939,#19,#13);
#1138= IFCLOCALPLACEMENT(#1126,#1137);
#943= IFCDOOR('37d4Mjxbb6zhor5wUW9y3K',#41,'\X2\56DB624763A862C995E8\X0\ 1:livingroom 2:331362',$,'livingroom 2',#1138,#937,'331362',2182.,1568.);
#946= IFCPROPERTYSINGLEVALUE('Reference',$,IFCIDENTIFIER('livingroom 2'),$);
#947= IFCPROPERTYSINGLEVALUE('ThermalTransmittance',$,IFCTHERMALTRANSMITTANCEMEASURE(3.6886),$);
#948= IFCPROPERTYSET('37d4Mjxbb6zhor75UW9y3K',#41,'Pset_DoorCommon',$,(#195,#946,#947));
#950= IFCPROPERTYSINGLEVALUE('Manufacturer',$,IFCLABEL(''),$);
#951= IFCPROPERTYSET('3FCS17Bu5BJ8P4epSRm3Ro',#41,'Pset_ManufacturerTypeInformation',$,(#950));
#953= IFCRELDEFINESBYPROPERTIES('2JGzGSanb2OPrkAF3NaFI1',#41,$,$,(#943),#948);
#957= IFCRELDEFINESBYPROPERTIES('2Qchw40eT14xijkR4z9A4B',#41,$,$,(#943),#951);
#960= IFCCLASSIFICATIONREFERENCE('http://www.csiorg.net/uniformat','B2030110','Exterior Glazed Doors - Aluminum',#205);
#961= IFCRELASSOCIATESCLASSIFICATION('2F7vUAm7933BrKypyg4Vqa',#41,'Uniformat Classification','',(#943),#960);
#965= IFCAXIS2PLACEMENT3D(#6,$,$);
#966= IFCLOCALPLACEMENT($,#965);
#967= IFCSITE('1lKuqJnFz22PovoAW1paW7',#41,'Default',$,'',#966,$,$,.ELEMENT.,(39,54,57,601318),(116,25,58,795166),0.,$,$);
#972= IFCPROPERTYSINGLEVALUE('AboveGround',$,IFCLOGICAL(.U.),$);
#973= IFCPROPERTYSET('3Zu5Bv0LOHrPC12_o6FoQQ',#41,'Pset_BuildingStoreyCommon',$,(#972));
#975= IFCRELDEFINESBYPROPERTIES('3mxZZQhzv0cu95Xz359GQM',#41,$,$,(#120),#973);
#992= IFCRELAGGREGATES('3EKClVL$9D$wCRyRXuZYbl',#41,$,$,#101,(#967));
#996= IFCRELAGGREGATES('0OTK1HbLfBChCyegNcx6iT',#41,$,$,#967,(#111));
#1000= IFCRELAGGREGATES('27PCKGLxT4mxtV9cw6mgBW',#41,$,$,#111,(#120));
#1004= IFCPROPERTYSINGLEVALUE('NumberOfStoreys',$,IFCINTEGER(1),$);
#1005= IFCPROPERTYSET('27PCKGLxT4mxtVBOQ6mgBW',#41,'Pset_BuildingCommon',$,(#1004));
#1007= IFCRELDEFINESBYPROPERTIES('2Yyp1c3K9CAgGpp0_RdDPS',#41,$,$,(#111),#1005);
#1011= IFCRELASSOCIATESMATERIAL('3mS5v5EiX1pA1oHjJggFCD',#41,$,$,(#162),#189);
#1014= IFCRELASSOCIATESMATERIAL('2MW1VrfqnAmuprwtIxuzr3',#41,$,$,(#190),#186);
#1017= IFCRELASSOCIATESMATERIAL('0gk7XyiEb0jPH3MDeqtcUu',#41,$,$,(#230),#233);
#1020= IFCRELASSOCIATESMATERIAL('2XmLe1KmL0Hek00iKTibK1',#41,$,$,(#263),#266);
#1023= IFCRELASSOCIATESMATERIAL('10TlsolHn5nQfTiTRxkZbV',#41,$,$,(#296),#299);
#1026= IFCRELASSOCIATESMATERIAL('36Xe$to9bFUg0UKoZCdtJB',#41,$,$,(#329),#332);
#1029= IFCRELASSOCIATESMATERIAL('0vHoDdi919_P$4dMSC5mEM',#41,$,$,(#362),#365);
#1032= IFCRELASSOCIATESMATERIAL('2WddXR0Rv3Ww6xCFMSu5xw',#41,$,$,(#575),#592);
#1035= IFCRELASSOCIATESMATERIAL('3oGOdSxS57HeOBd_rzgB4S',#41,$,$,(#633),#640);
#1038= IFCRELASSOCIATESMATERIAL('06hXu2XHzCtvAjjIES7szX',#41,$,$,(#488),#512);
#1041= IFCRELASSOCIATESMATERIAL('0qe53uVGH7qfATfLgzSH0I',#41,$,$,(#525),#528);
#1044= IFCRELASSOCIATESMATERIAL('31y2AsHUn11ghoc1Jiz1o5',#41,$,$,(#924,#943),#492);
#1046= IFCRELDEFINESBYTYPE('3FpazzvL1Cp9fz8eDZE6nP',#41,$,$,(#162,#230,#263,#296,#329,#362),#190);
#1049= IFCRELDEFINESBYTYPE('2AYAvZQI10_AKFgQuqmI6d',#41,$,$,(#525),#488);
#1052= IFCRELDEFINESBYTYPE('0vCK6Qr_9Azw1geKr_7Pxm',#41,$,$,(#943),#924);
#1055= IFCRELCONNECTSPATHELEMENTS('1sINrC3$X35AwnuZqbAoAT',#41,'37d4Mjxbb6zhor5wUW9yW_|37d4Mjxbb6zhor5wUW9yXO','Structural',$,#162,#230,(),(),.ATSTART.,.ATSTART.);
#1060= IFCRELCONNECTSPATHELEMENTS('2RwzeoUQbBbwPDET9mUra9',#41,'37d4Mjxbb6zhor5wUW9yW_|37d4Mjxbb6zhor5wUW9yOh','Structural',$,#162,#362,(),(),.ATEND.,.ATEND.);
#1064= IFCRELCONNECTSPATHELEMENTS('2AIIrracX699SBtLCgoR7x',#41,'37d4Mjxbb6zhor5wUW9yXO|37d4Mjxbb6zhor5wUW9yc3','Structural',$,#230,#263,(),(),.ATSTART.,.ATEND.);
#1069= IFCRELCONNECTSPATHELEMENTS('1XmWkllaf7tAUR4svcAe60',#41,'37d4Mjxbb6zhor5wUW9yc3|37d4Mjxbb6zhor5wUW9yaK','Structural',$,#263,#296,(),(),.ATSTART.,.ATEND.);
#1074= IFCRELCONNECTSPATHELEMENTS('3feaEAlEPCwxj7PzU5EcSZ',#41,'37d4Mjxbb6zhor5wUW9yaK|37d4Mjxbb6zhor5wUW9yRT','Structural',$,#296,#329,(),(),.ATSTART.,.ATEND.);
#1079= IFCRELCONNECTSPATHELEMENTS('2WNlFG1Pf6hQjpzyL0K3CU',#41,'37d4Mjxbb6zhor5wUW9yRT|37d4Mjxbb6zhor5wUW9yOh','Structural',$,#329,#362,(),(),.ATSTART.,.ATEND.);
#1083= IFCCARTESIANPOINT((621.999999999999,284.5));
#1085= IFCAXIS2PLACEMENT2D(#1083,#23);
#1086= IFCRECTANGLEPROFILEDEF(.AREA.,$,#1085,1244.,569.);
#1087= IFCAXIS2PLACEMENT3D(#6,#15,#19);
#1088= IFCEXTRUDEDAREASOLID(#1086,#1087,#19,198.);
#1089= IFCSHAPEREPRESENTATION(#98,'Body','SweptSolid',(#1088));
#1091= IFCPRODUCTDEFINITIONSHAPE($,$,(#1089));
#1093= IFCCARTESIANPOINT((595.500000000001,-99.,802.));
#1095= IFCAXIS2PLACEMENT3D(#1093,$,$);
#1096= IFCLOCALPLACEMENT(#131,#1095);
#1098= IFCOPENINGELEMENT('37d4Mjxbb6zhor5xIW9yEE',#41,'\X2\56FA5B9A\X0\:0915 x 1220mm:331064:1',$,'Opening',#1096,#1091,$);
#1103= IFCRELVOIDSELEMENT('37d4Mjxbb6zhor5xEW9yEE',#41,$,$,#162,#1098);
#1106= IFCRELFILLSELEMENT('3_ikj7OSfDHPoJWaT8qyJT',#41,$,$,#1098,#525);
#1109= IFCAXIS2PLACEMENT3D(#6,$,$);
#1113= IFCCARTESIANPOINT((1091.,783.999999999999));
#1115= IFCAXIS2PLACEMENT2D(#1113,#23);
#1116= IFCRECTANGLEPROFILEDEF(.AREA.,$,#1115,2182.,1568.);
#1117= IFCAXIS2PLACEMENT3D(#6,#17,#19);
#1118= IFCEXTRUDEDAREASOLID(#1116,#1117,#19,198.);
#1119= IFCSHAPEREPRESENTATION(#98,'Body','SweptSolid',(#1118));
#1121= IFCPRODUCTDEFINITIONSHAPE($,$,(#1119));
#1123= IFCCARTESIANPOINT((2165.5,99.,0.));
#1125= IFCAXIS2PLACEMENT3D(#1123,$,$);
#1126= IFCLOCALPLACEMENT(#210,#1125);
#1128= IFCOPENINGELEMENT('37d4Mjxbb6zhor5xIW9y3K',#41,'\X2\56DB624763A862C995E8\X0\ 1:livingroom 2:331362:1',$,'Opening',#1126,#1121,$);
#1131= IFCRELVOIDSELEMENT('37d4Mjxbb6zhor5xEW9y3K',#41,$,$,#230,#1128);
#1134= IFCRELFILLSELEMENT('3lBueuFQr4lRFuKoxefE$o',#41,$,$,#1128,#943);
#1141= IFCPRESENTATIONLAYERASSIGNMENT('A-DOOR-____-OTLN',$,(#918,#935),$);
#1143= IFCPRESENTATIONLAYERASSIGNMENT('A-FLOR-____-OTLN',$,(#571,#629),$);
#1145= IFCPRESENTATIONLAYERASSIGNMENT('A-GLAZ-____-OTLN',$,(#482,#517),$);
#1147= IFCPRESENTATIONLAYERASSIGNMENT('A-WALL-____-OTLN',$,(#137,#155,#215,#226,#248,#259,#281,#292,#314,#325,#347,#358,#1089,#1119),$);
ENDSEC;

END-ISO-10303-21;
